<?xml version="1.0" encoding="UTF-8"?>
<svg version="1.0" viewBox="0 0 215.69 162.88" xmlns="http://www.w3.org/2000/svg" xmlns:xlink="http://www.w3.org/1999/xlink">
 <defs>
  <linearGradient id="a">
   <stop offset="0"/>
   <stop stop-opacity="0" offset="1"/>
  </linearGradient>
  <linearGradient id="q">
   <stop stop-color="#585858" offset="0"/>
   <stop stop-color="#434343" offset="1"/>
  </linearGradient>
  <linearGradient id="p">
   <stop stop-color="#808080" offset="0"/>
   <stop stop-color="#5b5b5b" offset="1"/>
  </linearGradient>
  <linearGradient id="s" x1="340.55" x2="371.8" y1="707.61" y2="707.61" gradientTransform="translate(-111.02)" gradientUnits="userSpaceOnUse" xlink:href="#p"/>
  <linearGradient id="x" x1="425.3" x2="425.3" y1="686.33" y2="700.68" gradientTransform="translate(-179.78)" gradientUnits="userSpaceOnUse" xlink:href="#a"/>
  <linearGradient id="y" x1="178.75" x2="140.99" y1="127.11" y2="127.11" gradientTransform="translate(84.033 580)" gradientUnits="userSpaceOnUse" xlink:href="#q"/>
  <linearGradient id="z" x1="353.86" x2="353.86" y1="690.18" y2="693.88" gradientTransform="translate(-111.02)" gradientUnits="userSpaceOnUse" xlink:href="#a"/>
  <linearGradient id="aa" x1="316.3" x2="388.55" y1="614.86" y2="640.86" gradientTransform="translate(-111.02)" gradientUnits="userSpaceOnUse">
   <stop stop-color="#959595" stop-opacity=".30622" offset="0"/>
   <stop stop-color="#3d3d3d" stop-opacity=".53589" offset="1"/>
  </linearGradient>
  <linearGradient id="ab" x1="362.05" x2="362.05" y1="685.29" y2="652.84" gradientTransform="translate(-111.02)" gradientUnits="userSpaceOnUse">
   <stop stop-color="#b9b9b9" offset="0"/>
   <stop stop-color="#cecece" stop-opacity="0" offset="1"/>
  </linearGradient>
  <linearGradient id="ac" x1="362.05" x2="361.55" y1="685.29" y2="650.59" gradientTransform="translate(-144.02)" gradientUnits="userSpaceOnUse">
   <stop stop-color="#e9e337" offset="0"/>
   <stop stop-color="#f9fca2" stop-opacity="0" offset="1"/>
  </linearGradient>
  <linearGradient id="r" x1="340.55" x2="371.8" y1="707.61" y2="707.61" gradientTransform="translate(-144.02)" gradientUnits="userSpaceOnUse" xlink:href="#p"/>
  <linearGradient id="t" x1="425.3" x2="425.3" y1="686.33" y2="700.68" gradientTransform="translate(-212.78)" gradientUnits="userSpaceOnUse" xlink:href="#a"/>
  <linearGradient id="u" x1="178.75" x2="140.99" y1="127.11" y2="127.11" gradientTransform="translate(51.033,580)" gradientUnits="userSpaceOnUse" xlink:href="#q"/>
  <linearGradient id="v" x1="353.86" x2="353.86" y1="690.18" y2="693.88" gradientTransform="translate(-144.02)" gradientUnits="userSpaceOnUse" xlink:href="#a"/>
  <linearGradient id="w" x1="316.3" x2="388.55" y1="614.86" y2="640.86" gradientTransform="translate(-144.02)" gradientUnits="userSpaceOnUse">
   <stop stop-color="#fefef9" stop-opacity=".3139" offset="0"/>
   <stop stop-color="#3d3d3d" stop-opacity=".53589" offset="1"/>
  </linearGradient>
 </defs>
 <g transform="translate(-200.08 -570.09)">
  <g transform="translate(8.5013 -5.5)">
   <rect x="227.55" y="687.36" width="33.75" height="31.25" rx="0" ry="0" color="#000000" fill="url(#s)"/>
   <rect x="227.55" y="687.36" width="33.75" height="31.25" rx="0" ry="0" color="#000000" fill="url(#x)"/>
   <path d="m225.53 695.84v2.4375l17.75-2.4375h-17.75zm37.75 0.25-37.75 5.1875v2.0625l37.75-5.1875v-2.0625zm0 5.0625-37.75 5.1875v2.0625l37.75-5.1875v-2.0625zm0 5.0625-37.75 5.1875v2.0312l37.75-5.1875v-2.0312zm0 5.0312-37.75 5.1875v2.0625l37.75-5.1875v-2.0625z" fill="url(#y)"/>
   <path d="m225.17 688.22v5.25c0 1.385 1.115 2.5 2.5 2.5h33.5c1.385 0 2.5-1.115 2.5-2.5v-5.25z" color="#000000" fill="url(#s)"/>
   <path d="m225.17 688.22v5.25c0 1.385 1.115 2.5 2.5 2.5h33.5c1.385 0 2.5-1.115 2.5-2.5v-5.25z" color="#000000" fill="url(#z)"/>
   <path d="m244.42 581.09c-24.493 0-44.344 19.851-44.344 44.344 0 11.167 4.1252 21.359 10.938 29.156 3.878 4.0518 6.5995 9.9233 7.4688 16.656l0.0191 12.429c0 4.4527 3.5756 8.0284 8.0284 8.0284h35.78c4.4527 0 8.0284-3.5756 8.0284-8.0284l-0.0121-12.429c0.86451-6.7196 3.6103-12.574 7.4688-16.625 3e-3 -0.01-2e-3 -0.0215 0-0.0312 6.8156-7.7976 10.969-17.986 10.969-29.156 0-24.493-19.851-44.344-44.344-44.344z" fill="url(#aa)" opacity=".68293"/>
   <path d="m227.53 718.59 4.25 4.75h25.25l4.25-4.75z" color="#000000" fill="#808080"/>
   <path d="m231.77 723.34c0 1.0374 0.52146 2.0748 1.5644 2.8696l7.3055 5.568c2.0859 1.5898 5.4444 1.5898 7.5303 0l7.3055-5.568c1.043-0.79489 1.5644-1.8323 1.5644-2.8696z" color="#000000" fill="#343434"/>
   <path d="m244.42 581.09c-24.493 0-44.344 19.851-44.344 44.344 0 11.167 4.1252 21.359 10.938 29.156 3.878 4.0518 6.5995 9.9233 7.4688 16.656l0.0191 12.429c0 4.4527 3.5756 8.0284 8.0284 8.0284h35.78c4.4527 0 8.0284-3.5756 8.0284-8.0284l-0.0121-12.429c0.86451-6.7196 3.6103-12.574 7.4688-16.625 3e-3 -0.01-2e-3 -0.0215 0-0.0312 6.8156-7.7976 10.969-17.986 10.969-29.156 0-24.493-19.851-44.344-44.344-44.344z" fill="url(#ab)"/>
   <path d="m231.38 591.37c-13.547 6.7471-22.938 20.62-22.938 36.812 0 0.60674 0.12823 1.3296 0.1875 1.9688l11.938-2.0312c1.356-11.127 7.9158-20.595 17.25-25.906l-6.4375-10.844z" fill="#fff"/>
  </g>
  <g transform="translate(151.5 -5.5)">
   <path d="m211.42 581.09c-24.493 0-44.344 19.851-44.344 44.344 0 11.167 4.1252 21.359 10.938 29.156 3.878 4.0518 6.5995 9.9233 7.4688 16.656l0.0191 12.429c0 4.4527 3.5756 8.0284 8.0284 8.0284h35.78c4.4527 0 8.0284-3.5756 8.0284-8.0284l-0.0121-12.429c0.86451-6.7196 3.6103-12.574 7.4688-16.625 3e-3 -0.01-2e-3 -0.0215 0-0.0312 6.8156-7.7976 10.969-17.986 10.969-29.156 0-24.493-19.851-44.344-44.344-44.344z" fill="#f9ff00" opacity=".68293"/>
   <rect x="194.55" y="687.36" width="33.75" height="31.25" rx="0" ry="0" color="#000000" fill="url(#r)"/>
   <rect x="194.55" y="687.36" width="33.75" height="31.25" rx="0" ry="0" color="#000000" fill="url(#t)"/>
   <path d="m192.53 695.84v2.4375l17.75-2.4375h-17.75zm37.75 0.25-37.75 5.1875v2.0625l37.75-5.1875v-2.0625zm0 5.0625-37.75 5.1875v2.0625l37.75-5.1875v-2.0625zm0 5.0625-37.75 5.1875v2.0312l37.75-5.1875v-2.0312zm0 5.0312-37.75 5.1875v2.0625l37.75-5.1875v-2.0625z" fill="url(#u)"/>
   <path d="m192.17 688.22v5.25c0 1.385 1.115 2.5 2.5 2.5h33.5c1.385 0 2.5-1.115 2.5-2.5v-5.25z" color="#000000" fill="url(#r)"/>
   <path d="m192.17 688.22v5.25c0 1.385 1.115 2.5 2.5 2.5h33.5c1.385 0 2.5-1.115 2.5-2.5v-5.25z" color="#000000" fill="url(#v)"/>
   <path d="m211.42 581.09c-24.493 0-44.344 19.851-44.344 44.344 0 11.167 4.1252 21.359 10.938 29.156 3.878 4.0518 6.5995 9.9233 7.4688 16.656l0.0191 12.429c0 4.4527 3.5756 8.0284 8.0284 8.0284h35.78c4.4527 0 8.0284-3.5756 8.0284-8.0284l-0.0121-12.429c0.86451-6.7196 3.6103-12.574 7.4688-16.625 3e-3 -0.01-2e-3 -0.0215 0-0.0312 6.8156-7.7976 10.969-17.986 10.969-29.156 0-24.493-19.851-44.344-44.344-44.344z" fill="url(#w)" opacity=".282"/>
   <path d="m194.53 718.59 4.25 4.75h25.25l4.25-4.75z" color="#000000" fill="#808080"/>
   <path d="m198.77 723.34c0 1.0374 0.52146 2.0748 1.5644 2.8696l7.3055 5.568c2.0859 1.5898 5.4444 1.5898 7.5303 0l7.3055-5.568c1.043-0.79489 1.5644-1.8323 1.5644-2.8696z" color="#000000" fill="#343434"/>
   <path d="m211.42 581.09c-24.493 0-44.344 19.851-44.344 44.344 0 11.167 4.1252 21.359 10.938 29.156 3.878 4.0518 6.5995 9.9233 7.4688 16.656l0.0191 12.429c0 4.4527 3.5756 8.0284 8.0284 8.0284h35.78c4.4527 0 8.0284-3.5756 8.0284-8.0284l-0.0121-12.429c0.86451-6.7196 3.6103-12.574 7.4688-16.625 3e-3 -0.01-2e-3 -0.0215 0-0.0312 6.8156-7.7976 10.969-17.986 10.969-29.156 0-24.493-19.851-44.344-44.344-44.344z" fill="url(#ac)"/>
   <path d="m198.38 591.37c-13.547 6.7471-22.938 20.62-22.938 36.812 0 0.60674 0.12823 1.3296 0.1875 1.9688l11.938-2.0312c1.356-11.127 7.9158-20.595 17.25-25.906l-6.4375-10.844z" fill="#fff"/>
  </g>
 </g>
</svg>
