<?xml version="1.0" encoding="UTF-8"?>
<svg version="1.1" viewBox="0 0 350 600" xmlns="http://www.w3.org/2000/svg">
 <g transform="matrix(.60755 0 0 .60755 -124.79 -162.81)">
  <g transform="matrix(2.3569 0 0 2.3569 -1120.3 299.59)">
   <path d="m679.55 387.81c-10.352-1.3649-15.575-3.6452-23.483-10.253l-3.9126-3.2689-16.326-0.54822c-16.411-0.55108-25.223-1.9241-36.326-5.6602-14.759-4.9664-21.297-8.392-22.075-11.566-0.27093-1.1056 0.4226-3.7927 1.5412-5.9715s2.0338-4.6718 2.0338-5.5399c0-6.0323 5.7946-21.652 10.016-26.999 4.7132-5.9695 22.339-17.544 40.71-26.733 9.4345-4.7191 12.09-6.593 16.637-11.741 5.8214-6.5897 6.079-7.3238 9.1321-26.026 1.8543-11.359 1.8777-10.763-0.53243-13.542-2.1198-2.4442-2.0861-3.9343 0.27557-12.192 1.499-5.2411 3.4211-6.5981 12.364-8.7287 4.3124-1.0274 8.0206-2.4073 8.2402-3.0663 0.21968-0.65903 1.2146-1.8962 2.2109-2.7493 1.6959-1.4521 1.775-3.3752 1.2399-30.136-0.38938-19.472-0.0112-42.605 1.1863-72.559 0.96684-24.185 1.537-46.725 1.2671-50.088-0.32664-4.0692-0.0438-6.9215 0.84559-8.5266 1.6098-2.9053 1.8041-9.3019 0.36427-11.992-0.75905-1.4183-0.60321-3.7025 0.57241-8.3902 1.3796-5.501 1.447-7.8519 0.46169-16.104-1.36-11.39-0.44758-13.767 3.5245-9.1823 2.3537 2.7167 2.3718 2.9137 1.8919 20.5-0.26651 9.7663-1.0125 22.932-1.6577 29.257s-1.2429 14.425-1.3282 18-0.46885 8.3-0.85233 10.5c-0.44357 2.5447-0.17612 5.6873 0.73513 8.6379 1.0572 3.4231 1.1993 6.0424 0.5426 10-0.48938 2.9492-0.89967 8.5121-0.91177 12.362-0.0452 14.369-0.62457 28.11-1.3282 31.5-0.53911 2.5974-0.17695 4.7391 1.4044 8.3049 1.9089 4.3045 2.0088 5.346 0.95905 10-2.0147 8.932-1.9664 12.95 0.25164 20.943 2.0518 7.3946 2.073 7.9097 0.46398 11.284-0.92731 1.9446-1.6839 5.6578-1.6812 8.2517 4e-3 3.9793 0.54288 5.3019 3.449 8.4661 1.8943 2.0625 4.12 3.75 4.946 3.75 3.5734 0 11.745 2.2972 13.625 3.8304 1.1337 0.92451 2.7363 4.3185 3.5912 7.6052 1.5272 5.8715 1.519 5.9544-0.75446 7.6692l-2.2983 1.7336 2.3106 17.301 2.3106 17.301 4.8229 5.5672c3.8228 4.4128 6.2403 6.1429 11.658 8.3436 15.403 6.2566 35.579 19.68 45.091 29.999 5.1867 5.6269 8.6939 12.507 10.853 21.289 0.92743 3.7728 2.2949 8.0748 3.0387 9.56s1.3525 4.5136 1.3525 6.7298c0 3.8088-0.28742 4.1956-5.25 7.0645-5.9406 3.4342-10.556 4.8359-26.25 7.9723-23.143 4.6249-48.981 6.5502-50.063 3.7303-0.27497-0.71657 0.19519-2.9666 1.0448-5 2.8824-6.8984-0.41782-3.7806-4.4166 4.1727-3.1826 6.33-4.8815 8.4823-8.6826 11-2.5992 1.7216-4.9861 3.141-5.3043 3.1541-0.31821 0.0131-2.1536 0.37111-4.0786 0.79554-1.925 0.42442-6.1787 0.41848-9.4528-0.0132zm8.2821-10.158c0.25442-1.3211-0.15595-1.7314-1.477-1.477-1.0061 0.19376-1.9879 1.1755-2.1816 2.1816-0.25442 1.3211 0.15595 1.7314 1.477 1.477 1.0061-0.19376 1.9879-1.1755 2.1816-2.1816zm-10.829-0.04071c0-1.3103-2.0303-2.607-4.0818-2.607-1.379 0-1.1048 2.758 0.33179 3.3377 2.3348 0.94211 3.75 0.66634 3.75-0.73073zm10.215-8.4599c1.8066-1.5691 4.6348-3.3012 6.2848-3.8491 2.61-0.86671 2.9586-1.4104 2.6813-4.1823-0.17528-1.7523 0.34729-5.3077 1.1612-7.9009 3.1304-9.9728 3.1499-9.8534-1.8181-11.104-5.4149-1.3635-15.16-1.3491-22.334 0.0331-7.0823 1.3645-8.1607 3.5469-5.8533 11.846 0.91446 3.2891 1.6626 6.8019 1.6626 7.8062s2.037 3.7111 4.5268 6.0151c5.5344 5.1216 8.9465 5.4547 13.688 1.3363z" fill="#eed4a8"/>
   <path d="m620.95 371.51c-10.424-1.4401-24.428-5.4373-29.949-8.5487l-3.5-1.9725 4 0.55937c2.2 0.30766 6.025 1.0943 8.5 1.748s9.45 1.1932 15.5 1.1987l11 0.01-0.27126-6.7408c-0.14919-3.7074-0.69471-7.8546-1.2123-9.2159-0.90505-2.3805-1.2005-2.454-7.7287-1.9238-6.826 0.55436-20.422 3.4989-25.538 5.5309-1.5125 0.60075-2.75 1.7127-2.75 2.471 0 0.8652-1.1173 1.3787-3 1.3787-3.1957 0-3.7452 0.85479-1.8 2.8 1.5245 1.5245 0.60718 1.5249-2.7372 1e-3 -3.0293-1.3802-3.0833-0.71353 1.4019-17.301 3.5474-13.119 6.2285-19.398 10.23-23.955 4.3778-4.9861 21.528-16.066 36.905-23.844 11.748-5.9416 14.252-7.6586 19.296-13.227l5.7958-6.3992 2.6446-16.02 2.6446-16.02-2.2387-2.3829c-2.0847-2.219-2.1565-2.7189-1.0444-7.2672 1.7861-7.3049 3.593-10.277 6.6703-10.973 11.852-2.6781 13.837-3.4746 16.524-6.6315l2.792-3.2802-0.64306-16.128c-0.4337-10.877-0.30046-16.34 0.40924-16.779 0.6204-0.38342 1.5647 1.1058 2.3008 3.6285 0.68669 2.3534 1.8336 4.6387 2.5488 5.0786 1.7932 1.1029 1.6403 4.7004-0.19974 4.7004-1.956 0-1.9056 0.98295 0.12661 2.4689 1.3051 0.95433 1.404 1.6055 0.5 3.2945-0.61963 1.1578-1.1083 4.7222-1.086 7.9208 0.0592 8.4705 2.86 11.402 13.669 14.307 4.5152 1.2134 8.6187 2.7243 9.119 3.3576 0.50031 0.63327 1.4782 3.5752 2.173 6.5376 1.1198 4.7741 1.0779 5.49-0.36904 6.2997-2.152 1.2043-2.084 9.3067 0.21309 25.419 1.6639 11.671 1.873 12.281 5.8288 17 5.6611 6.7536 6.8461 7.6252 14.826 10.905 9.5926 3.9432 22.399 11.576 32.152 19.162 9.2345 7.1828 13.448 11.643 16.325 17.283 1.8228 3.573 7.0227 20.012 7.0227 22.202 0 0.5245-1.6429 0.65616-3.75 0.30052l-3.75-0.63293 4.4276 3.0292c4.6909 3.2094 6.5509 5.5628 5.6054 7.0926-1.6 2.5888-11.789 7.0477-19.533 8.548-4.675 0.90569-12.775 2.5513-18 3.6569-9.8868 2.0921-41 3.8645-41 2.3357 0-0.44631 1.1438-2.7632 2.5418-5.1487 2.0879-3.5628 2.6506-6.1229 3.1511-14.338 0.3469-5.6942 0.22125-10.049-0.2918-10.112-0.49558-0.0615-2.4761-0.25838-4.4011-0.43755-1.925-0.17918-8.4746-0.86678-14.555-1.528-10.984-1.1945-17.326-1.023-37.445 1.013-15.823 1.6012-15 1.1924-15 7.4469 0 8.8111 1.703 15.613 4.5756 18.275 1.4168 1.3131 2.3928 2.9398 2.1688 3.6149-0.57891 1.7446-19.831 1.8854-31.796 0.23255zm62.242-197.19c-0.71942-1.3193-1.1974-6.6653-1.207-13.5-0.0215-15.269 2.0518-71.939 2.7005-73.816 0.28519-0.825 1.1677 0.975 1.961 4 1.1979 4.5672 1.269 8.7223 0.41973 24.5-2.008 37.302-2.2719 50.5-1.01 50.5 0.76006 0 0.93225 0.79816 0.48539 2.25-0.38088 1.2375-1.0224 3.6-1.4255 5.25-0.7186 2.941-0.75645 2.957-1.9241 0.81574zm2.2267-108.07c0.2836-8.6625 0.81635-20.7 1.1839-26.75s0.60416-15.838 0.52582-21.75c-0.13848-10.451 0.6298-12.94 2.7635-8.9535 1.2145 2.2694-0.33451 47.336-1.9097 55.559-0.61692 3.2204-0.82877 7.5889-0.47077 9.7078 0.7065 4.1817-0.06326 7.937-1.6269 7.937-0.62229 0-0.7928-5.7642-0.46588-15.75z" fill="#de9b60"/>
   <path d="m721.5 369.07c-1.5406-0.61178-0.62184-1.0508 4-1.9114 3.3-0.61445 9.3928-2.2504 13.54-3.6355 4.1468-1.3851 8.3574-2.5183 9.357-2.5183 1.2463 0 1.6266-0.49699 1.2104-1.5818-0.33385-0.86998-0.60699-2.0179-0.60699-2.551 0-0.53309-1.575-1.6273-3.5-2.4316-1.925-0.80431-3.5-1.8901-3.5-2.4129s1.6034-2.0401 3.5631-3.3717l3.5631-2.4212-4.8131-1.1072c-5.3801-1.2377-34.747-4.1191-42.078-4.1287-2.6044-3e-3 -5.8603-0.583-7.2353-1.288-2.9598-1.5176-18.712-1.4647-21.588 0.0724-1.0516 0.56209-7.9869 1.5371-15.412 2.1668-41.856 3.5494-64.569 7.4076-73.721 12.523-2.5206 1.4088-4.8257 2.3185-5.1226 2.0217-0.29685-0.29685 0.0565-2.1885 0.78517-4.2037 0.7287-2.0152 2.3491-7.7414 3.601-12.725 2.7526-10.958 5.5948-17.508 9.5524-22.016 4.3778-4.9861 21.528-16.066 36.905-23.844 11.748-5.9416 14.252-7.6586 19.296-13.227l5.7958-6.3992 2.6446-16.02 2.6446-16.02-2.2387-2.3829c-2.0847-2.219-2.1565-2.7189-1.0444-7.2672 1.7861-7.3049 3.593-10.277 6.6703-10.973 11.852-2.6781 13.837-3.4746 16.524-6.6315l2.792-3.2802-0.64306-16.128c-0.4337-10.877-0.30046-16.34 0.40924-16.779 0.6204-0.38342 1.5647 1.1058 2.3008 3.6285 0.68669 2.3534 1.8336 4.6387 2.5488 5.0786 1.7932 1.1029 1.6403 4.7004-0.19974 4.7004-1.956 0-1.9056 0.98295 0.12661 2.4689 1.3051 0.95433 1.404 1.6055 0.5 3.2945-0.61963 1.1578-1.1083 4.7222-1.086 7.9208 0.0592 8.4705 2.86 11.402 13.669 14.307 4.5152 1.2134 8.6187 2.7243 9.119 3.3576 0.50031 0.63327 1.4643 3.5173 2.1422 6.4089 1.1663 4.9752 1.1139 5.3536-0.97677 7.0464l-2.2093 1.789 2.1267 16.908c1.1697 9.2994 2.7577 17.871 3.5289 19.048 4.142 6.3215 11.326 12.293 18.06 15.012 15.434 6.2323 37.301 21.313 43.86 30.248 3.4668 4.7227 7.6383 14.201 7.6392 17.357 2.7e-4 0.91666-0.46435 1.8216-1.0325 2.011-0.56815 0.18939 0.10685 1.8893 1.5 3.7776 1.3931 1.8883 2.533 3.7685 2.533 4.1783s-2.1375 0.0815-4.75-0.72957c-2.6125-0.81103-6.102-1.8979-7.7543-2.4152-4.7557-1.4889-18.539-3.1863-20.32-2.5025-1.4014 0.53778-1.4212 0.74649-0.14715 1.5522 0.80958 0.51199 2.5168 0.93779 3.7939 0.94621 3.0654 0.0202 20.272 5.5066 26.997 8.6082 6.6843 3.0827 6.543 4.8972-0.6838 8.7769-10.261 5.5087-54.465 10.94-62.635 7.6954zm56.5-31.065c-0.82501-1.5416-2.0938-2-5.5352-2-2.4556 0-4.4648 0.43713-4.4648 0.97141 0 1.0656 5.173 2.7958 8.7852 2.9384 1.9829 0.0783 2.1436-0.17437 1.2148-1.9098zm-94.809-163.68c-0.71942-1.3193-1.1974-6.6653-1.207-13.5-0.0215-15.269 2.0518-71.939 2.7005-73.816 0.28519-0.825 1.1677 0.975 1.961 4 1.1979 4.5672 1.269 8.7223 0.41973 24.5-2.008 37.302-2.2719 50.5-1.01 50.5 0.76006 0 0.93225 0.79816 0.48539 2.25-0.38088 1.2375-1.0224 3.6-1.4255 5.25-0.7186 2.941-0.75645 2.957-1.9241 0.81574zm2.2267-108.07c0.2836-8.6625 0.81635-20.7 1.1839-26.75s0.60416-15.838 0.52582-21.75c-0.13848-10.451 0.6298-12.94 2.7635-8.9535 1.2145 2.2694-0.33451 47.336-1.9097 55.559-0.61692 3.2204-0.82877 7.5889-0.47077 9.7078 0.7065 4.1817-0.06326 7.937-1.6269 7.937-0.62229 0-0.7928-5.7642-0.46588-15.75z" fill="#aa8964"/>
   <path d="m721.5 369.07c-1.5406-0.61178-0.62184-1.0508 4-1.9114 3.3-0.61445 9.3928-2.2504 13.54-3.6355 4.1468-1.3851 8.3574-2.5183 9.357-2.5183 1.2463 0 1.6266-0.49699 1.2104-1.5818-0.33385-0.86998-0.60699-2.0179-0.60699-2.551 0-0.53309-1.575-1.6273-3.5-2.4316-1.925-0.80431-3.5-1.8901-3.5-2.4129s1.6034-2.0401 3.5631-3.3717l3.5631-2.4212-4.8131-1.1239c-2.6472-0.61813-8.8631-1.535-13.813-2.0375-4.95-0.5025-14.4-1.4556-21-2.118-6.6-0.66237-13.125-1.6674-14.5-2.2334-3.193-1.3144-19.434-1.0904-22.039 0.30399-1.0881 0.58232-7.0369 1.4914-13.22 2.0203-6.1827 0.52883-12.366 1.1835-13.741 1.4549-1.375 0.27136-10.36 1.1975-19.967 2.0582-18.149 1.6259-30.002 3.8858-39.017 7.4391-5.7418 2.2632-6.6813 2.1449-5.2249-0.65776 0.52463-1.0096 2.1518-6.5271 3.6159-12.261 3.6416-14.262 7.3451-20.922 14.317-25.749 9.1166-6.3108 16.01-10.284 31.775-18.318 12.704-6.4732 15.244-8.1534 16.596-10.976 0.87784-1.8329 3.0231-4.5025 4.7672-5.9324 3.0341-2.4876 3.2778-3.2478 5.6402-17.6 3.0092-18.282 3.0099-18.325 0.35905-21.146-1.8116-1.9284-1.9736-2.7006-1.0625-5.0644 0.59126-1.534 1.3672-4.2669 1.7244-6.073 0.81036-4.0977 3.0747-5.5282 12.181-7.695 5.9936-1.4262 7.633-2.2755 9.75-5.0511 2.2455-2.944 2.5449-4.2956 2.5449-11.487 0-6.012 0.32319-8.0423 1.232-7.7394 0.86659 0.28886 1.1412 2.6121 0.92586 7.8333-0.39306 9.5312 1.8701 13.441 9.1926 15.88 3.9063 1.3011 5.1315 2.284 6.2943 5.0496 1.811 4.3072 4.1736 6.9624 7.2372 8.1336 2.1514 0.82253 2.2377 1.0776 0.89103 2.6352-2.3036 2.6645-2.7844 6.1534-1.5064 10.931 0.88745 3.3181 0.88903 4.8143 7e-3 6.2273-0.63883 1.0229-1.2522 4.9675-1.3632 8.7656-0.1901 6.5106 0.0146 7.2175 3.5767 12.353 2.0781 2.996 4.3937 6.1576 5.1458 7.0259s1.3674 2.3472 1.3674 3.2865c0 1.1854 3.2883 3.2816 10.75 6.8529 11.326 5.4208 19.136 10.291 25.725 16.041l3.9747 3.4687-5.9747 1.6548c-7.6339 2.1144-8.9049 2.855-9.2864 5.4107-0.32332 2.1659 2.0876 6.8067 4.635 8.922 0.80475 0.66823 1.5112 2.9057 1.57 4.9722 0.0994 3.4988 0.41633 3.8758 4.6068 5.4806 2.475 0.94787 5.9625 1.7479 7.75 1.7778s3.2504 0.39188 3.2508 0.80438c4.3e-4 0.4125-4.3871 0.59849-9.75 0.41331-11.346-0.39178-11.609 0.83747-0.73456 3.4415 24.512 5.8699 35.87 10.134 35.278 13.245-0.17253 0.9075-2.7232 2.9435-5.6682 4.5245-10.437 5.603-53.386 10.963-61.626 7.6907zm22.5-36.065c0-0.55-0.675-1-1.5-1s-1.5 0.45-1.5 1 0.675 1 1.5 1 1.5-0.45 1.5-1zm-61-144.54c0-4.0587 0.12705-4.1145 1.8435-0.81079 0.87442 1.683 0.79591 2.4094-0.36454 3.3724-1.2611 1.0466-1.479 0.66913-1.479-2.5617zm0.115-43.147c-0.0634-4.5142 0.33388-8.4684 0.885-8.809 1.2117-0.74888 1.247 7.2486 0.0574 13-0.71191 3.4418-0.84342 2.857-0.94237-4.191zm0.885-18.484c0-14.32 1.3108-34.94 2.1378-33.629 0.4524 0.71719 0.60543 5.354 0.34006 10.304-0.26536 4.95-0.71772 13.699-1.0052 19.442-0.61659 12.316-1.4726 14.573-1.4726 3.883zm2.1579-49.825c0-1.375 0.22698-1.9375 0.50439-1.25s0.27741 1.8125 0 2.5-0.50439 0.125-0.50439-1.25zm-0.12748-19.191c-0.0169-3.1684 0.4681-5.9991 1.0942-6.386 0.73806-0.45614 0.95527-3.0622 0.63191-7.5815-0.29867-4.1743-0.0883-7.1364 0.5343-7.5212 1.2894-0.79686 0.0702 23.245-1.2973 25.584-0.65638 1.1227-0.94172-0.09077-0.96312-4.0957zm2.0693-40.5c0.05482-0.99496 0.45997-2.934 0.90032-4.309 0.71916-2.2456 0.81078-2.1244 0.90032 1.191 0.05482 2.03-0.35032 3.9691-0.90032 4.309s-0.95514-0.19602-0.90032-1.191z" fill="#9c6d47"/>
   <path d="m738.43 367.12c0.29461-0.47669 4.2564-1.3961 8.804-2.0431 20.799-2.9593 34.137-5.7105 38.887-8.0211 1.9461-0.94662 1.833-0.69239-0.6186 1.3908-1.65 1.402-5.025 3.2227-7.5 4.0458-8.0885 2.6902-40.734 6.5078-39.572 4.6276zm-155.43-15.771c0-0.35965 1.575-3.4703 3.5-6.9125 2.1317-3.8119 3.5-7.6199 3.5-9.7408 0-1.9152 0.92132-6.4651 2.0474-10.111 1.9404-6.2823 2.4114-6.8934 9.0148-11.696 3.8321-2.7872 8.8733-6.1229 11.203-7.4125 5.973-3.307 29.589-14.897 33.485-16.434 2.5376-1.0008 3.25-1.8684 3.25-3.9575 0-1.7867 1.2792-3.9249 3.8499-6.4351 3.8824-3.791 5.1371-7.7047 6.6193-20.647 1.9326-16.875 1.9567-15.918-0.46473-18.495-1.9513-2.077-2.1247-2.8281-1.2045-5.2156 0.59126-1.534 1.3672-4.2669 1.7244-6.073 0.81036-4.0977 3.0747-5.5282 12.181-7.695 5.9936-1.4262 7.633-2.2755 9.75-5.0511 2.2455-2.944 2.5449-4.2956 2.5449-11.487 0-6.012 0.32319-8.0423 1.232-7.7394 0.86659 0.28886 1.1412 2.6121 0.92586 7.8333-0.39306 9.5312 1.8701 13.441 9.1926 15.88 3.9063 1.3011 5.1315 2.284 6.2943 5.0496 1.8122 4.3099 4.1739 6.9625 7.2439 8.1362 2.8622 1.0942 1.9645 2.3573-1.6755 2.3573-1.9622 0-2.7746 0.62714-3.2381 2.5-0.44209 1.786-1.217 2.4362-2.7135 2.2766-1.7242-0.18391-2.2155 0.49134-2.7774 3.8174-0.76015 4.4992-0.33383 5.4461 2.0417 4.5345 1.0536-0.4043 1.4009-1.284 1.0024-2.5394-0.33529-1.0564-0.17241-2.191 0.36195-2.5212 1.581-0.97712 2.4281 1.45 1.3184 3.7775-0.565 1.1851-1.2977 2.9909-1.6281 4.013-0.56414 1.7448-0.75304 1.7586-3.0907 0.22695-2.2891-1.4998-2.4898-1.5009-2.4898-0.0127 0 0.89027 0.95112 2.9544 2.1136 4.587l2.1136 2.9683-2.1416 0.56006c-2.1972 0.57458-2.1965 1.1276 9e-3 7.025 0.45519 1.2171 2.6064 3.3359 4.7806 4.7083 7.4869 4.7263 8.5576 9.6791 2.4251 11.218-2.5983 0.65212-2.5761 0.68948 1.3404 2.2618 2.1902 0.8793 5.1973 2.5676 6.6824 3.7518s4.9794 2.6998 7.7652 3.3682c2.7858 0.6683 5.3037 1.8369 5.5954 2.597s1.3037 1.3818 2.249 1.3818c1.8999 0 6.0673 3.9696 6.0673 5.7793 0 0.6327 1.0125 1.6945 2.25 2.3595l2.25 1.2091-2.6408 0.71039c-1.4524 0.39071-7.19 1.036-12.75 1.4339-7.1926 0.51481-10.109 1.0943-10.109 2.0087 0 0.70683-0.7875 1.5921-1.75 1.9672-2.8436 1.1082-37.959 1.7064-41.574 0.70819-4.6668-1.2886-22.392 1.2472-25.682 3.6741-1.3781 1.0165-4.9781 2.1553-8 2.5306-3.0219 0.37531-6.3943 0.85563-7.4943 1.0674-1.1 0.21175-2.5625 0.42249-3.25 0.46833-1.5931 0.1062-1.571 5.0869 0.0318 7.1559 2.3817 3.0746 5.062 3.9262 6.9576 2.2108 1.6133-1.46 1.8532-1.3058 3.2792 2.107 1.5332 3.6695 1.5585 3.6817 7.26 3.5145 6.2971-0.1847 26.172 1.7128 27.041 2.5816 1.4553 1.4553-2.3106 2.4484-12.82 3.3806-38.405 3.4069-57.024 5.9529-67.5 9.2301-6.6023 2.0654-7.5 2.2149-7.5 1.2489zm99.683-85.534c-0.31922-0.79773-0.55618-0.56078-0.60416 0.60417-0.0434 1.0542 0.19293 1.6448 0.52522 1.3125s0.36781-1.1948 0.0789-1.9167zm-1.0947-5.6137c-0.7474-0.16568-1.6117-1.5654-1.9207-3.1104-0.30901-1.545-1.7106-4.1744-3.1148-5.8431-1.4041-1.6687-2.5529-3.479-2.5529-4.023 0-1.7864-4.2058-2.1335-6.6273-0.54693-2.2096 1.4478-3.3589 5.3246-1.5785 5.3246 0.43683 0 2.7246 1.8 5.0838 4 2.3593 2.2 5.0968 4 6.0833 4 0.98653 0 2.3716 0.6963 3.0779 1.5473 1.0249 1.235 1.4481 1.2854 2.0961 0.25 0.50408-0.80544 0.29669-1.4115-0.54698-1.5986zm35.412 80.75c-2.475-0.44039-6.75-0.84021-9.5-0.88849-5.6268-0.0988-9.5-0.92873-9.5-2.0356 0-1.5989 15.152-3.3082 23.581-2.6603 8.9773 0.69005 14.009 2.2283 16.291 4.9806 1.2606 1.52 0.6493 1.6447-7.5 1.5297-4.8798-0.06884-10.897-0.48548-13.372-0.92587zm-31-16.949c-0.825-0.53316-2.7375-0.97627-4.25-0.98469-2.2549-0.0125-2.75-0.46075-2.75-2.4896 0-3.4568 4.2952-5.5284 10.053-4.8486 2.4457 0.28873 5.4347 0.48657 6.6422 0.43966 2.5717-0.0999 9.7847 6.2973 8.8343 7.8351-0.81779 1.3232-16.494 1.364-18.53 0.04818zm-3-135.54c0-4.0587 0.12705-4.1145 1.8435-0.81079 0.87442 1.683 0.79591 2.4094-0.36454 3.3724-1.2611 1.0466-1.479 0.66913-1.479-2.5617zm0.115-43.147c-0.0634-4.5142 0.33388-8.4684 0.885-8.809 1.2117-0.74888 1.247 7.2486 0.0574 13-0.71191 3.4418-0.84342 2.857-0.94237-4.191zm0.885-18.484c0-14.32 1.3108-34.94 2.1378-33.629 0.4524 0.71719 0.60543 5.354 0.34006 10.304-0.26536 4.95-0.71772 13.699-1.0052 19.442-0.61659 12.316-1.4726 14.573-1.4726 3.883zm2.1579-49.825c0-1.375 0.22698-1.9375 0.50439-1.25s0.27741 1.8125 0 2.5-0.50439 0.125-0.50439-1.25zm-0.12748-19.191c-0.0169-3.1684 0.4681-5.9991 1.0942-6.386 0.73806-0.45614 0.95527-3.0622 0.63191-7.5815-0.29867-4.1743-0.0883-7.1364 0.5343-7.5212 1.2894-0.79686 0.0702 23.245-1.2973 25.584-0.65638 1.1227-0.94172-0.09077-0.96312-4.0957zm2.0693-40.5c0.05482-0.99496 0.45997-2.934 0.90032-4.309 0.71916-2.2456 0.81078-2.1244 0.90032 1.191 0.05482 2.03-0.35032 3.9691-0.90032 4.309s-0.95514-0.19602-0.90032-1.191z" fill="#905e3b"/>
   <path d="m584 349.62c0-1.9324 1.6776-2.9537 8-4.8704 15.396-4.6674 25.892-5.9957 51-6.454 28.659-0.52314 30.859 0.68551 5.6608 3.1106-23.876 2.2978-52.973 6.3613-57.938 8.0912-5.2844 1.841-6.7226 1.8672-6.7226 0.12262zm129.83-9.5298c-6.9726-0.61963-10.272-2.0085-5.2476-2.2092 1.6042-0.0641 6.5167-0.28482 10.917-0.49053 7.6575-0.35802 13.5 0.82275 13.5 2.7284 0 0.94334-8.3722 0.93082-19.169-0.0287zm-120.32-16.068c-2.1933-3.5489 5.6252-11.284 18.75-18.551 5.973-3.307 29.589-14.897 33.485-16.434 2.5006-0.98622 3.25-1.8792 3.25-3.8726 0-1.6877 1.4309-4.0488 4.1047-6.7732 2.2845-2.3277 4.3959-5.606 4.7613-7.3926 0.55008-2.6896 1.3667-3.4502 5.0355-4.6904 4.8456-1.638 10.594-1.0665 11.44 1.1372 0.66901 1.7434 10.069 2.9306 14.098 1.7804 2.8993-0.82788 10.533 1.3122 16.311 4.5728 2.445 1.3797 3.0017 3.1793 1 3.2326-0.6875 0.0183-2.3295 0.93219-3.6489 2.0309-2.2823 1.9005-2.3105 2.0622-0.58083 3.327 0.99994 0.73117 3.4294 1.906 5.3989 2.6108 1.9695 0.70479 4.792 2.2915 6.2724 3.5259 1.4803 1.2345 5.0024 2.7989 7.8267 3.4764 2.8244 0.67755 5.3738 1.8538 5.6655 2.6138s1.3037 1.3818 2.249 1.3818c1.6716 0 6.0673 3.8872 6.0673 5.3655 0 0.40511-1.4625 1.3309-3.25 2.0574-2.3603 0.95923-10.231 1.3624-28.75 1.4726-36.309 0.21606-62.814 3.1603-69.868 7.761-1.7495 1.141-3.7088 1.3787-7.5 0.90975-6.6586-0.8236-12.53 0.97336-20.519 6.2795-6.9207 4.5969-10.535 5.8989-11.598 4.1785zm76.985-43.024c0.78687-1.2732-1.5299-1.2732-3.5 0-1.2195 0.78809-1.0902 0.97224 0.69098 0.98469 1.205 8e-3 2.4691-0.43469 2.809-0.98469zm12.75 38.75c0.22917-0.6875 0.94167-1.205 1.5833-1.15 0.64167 0.055 2.3182 0.1675 3.7257 0.25 3.843 0.22526 1.8723 2.15-2.2014 2.15-2.375 0-3.3884-0.40763-3.1076-1.25zm0.92189-61.792c-3.6239-2.2038-7.1719-8.5947-7.1719-12.918 0-1.9126-0.50988-3.0398-1.375-3.0398-0.75625 0-2.7593-0.27685-4.4511-0.61523-2.6074-0.52147-3.5407-0.10656-6.125 2.7229-3.7478 4.1033-3.8543 7.15-0.39319 11.248l2.6557 3.1444-3.2828 0.32284c-4.499 0.44245-5.4143-0.77069-4.1142-5.453 1.7454-6.2862 1.3578-11.451-1.0519-14.016-1.8116-1.9284-1.9736-2.7006-1.0625-5.0644 0.59126-1.534 1.3672-4.2669 1.7244-6.073 0.81036-4.0977 3.0747-5.5282 12.181-7.695 5.9936-1.4262 7.633-2.2755 9.75-5.0511 2.2455-2.944 2.5449-4.2956 2.5449-11.487 0-6.012 0.32319-8.0423 1.232-7.7394 0.86659 0.28886 1.1412 2.6121 0.92586 7.8333-0.39306 9.5312 1.8701 13.441 9.1926 15.88 3.9063 1.3011 5.1315 2.284 6.2943 5.0496 1.7986 4.2777 4.1706 6.9612 7.1654 8.1064 1.2706 0.48585 2.0562 1.2944 1.7457 1.7967-0.3306 0.53492-1.8313 0.43522-3.6218-0.24063-2.6077-0.98429-3.5997-0.8454-6.7457 0.94441-2.0286 1.1541-4.4869 3.6257-5.4629 5.4925-1.9325 3.6962-3.0734 3.8192-6.4246 0.69271-2.5309-2.3612-5.3009-1.7878-5.3009 1.0974 0 1.7864 2.1097 3.96 6.4097 6.604 0.96356 0.59247 1.7209 2.5729 1.8583 4.8597 0.30116 5.0108-2.4663 6.4142-7.0961 3.5986zm-1.1719-69.503c0-4.0587 0.12705-4.1145 1.8435-0.81079 0.87442 1.683 0.79591 2.4094-0.36454 3.3724-1.2611 1.0466-1.479 0.66913-1.479-2.5617zm0.115-43.147c-0.0634-4.5142 0.33388-8.4684 0.885-8.809 1.2117-0.74888 1.247 7.2486 0.0574 13-0.71191 3.4418-0.84342 2.857-0.94237-4.191zm0.885-18.484c0-14.32 1.3108-34.94 2.1378-33.629 0.4524 0.71719 0.60543 5.354 0.34006 10.304-0.26536 4.95-0.71772 13.699-1.0052 19.442-0.61659 12.316-1.4726 14.573-1.4726 3.883zm2.1579-49.825c0-1.375 0.22698-1.9375 0.50439-1.25s0.27741 1.8125 0 2.5-0.50439 0.125-0.50439-1.25zm-0.12748-19.191c-0.0169-3.1684 0.4681-5.9991 1.0942-6.386 0.73806-0.45614 0.95527-3.0622 0.63191-7.5815-0.29867-4.1743-0.0883-7.1364 0.5343-7.5212 1.2894-0.79686 0.0702 23.245-1.2973 25.584-0.65638 1.1227-0.94172-0.09077-0.96312-4.0957zm2.0693-40.5c0.05482-0.99496 0.45997-2.934 0.90032-4.309 0.71916-2.2456 0.81078-2.1244 0.90032 1.191 0.05482 2.03-0.35032 3.9691-0.90032 4.309s-0.95514-0.19602-0.90032-1.191z" fill="#6e624a"/>
   <path d="m584.79 349.76c2.4966-3.0227 11.828-6.5744 23.21-8.8338 9.5158-1.889 15.641-2.3502 35.5-2.6728 14.934-0.24259 23.622-0.0363 23 0.54616-0.55 0.51481-8.425 1.673-17.5 2.5737-39.911 3.9612-43.545 4.4993-63 9.3286-2.1786 0.54079-2.3341 0.41971-1.2095-0.94191zm129.04-9.6673c-6.9726-0.61963-10.272-2.0085-5.2476-2.2092 1.6042-0.0641 6.5167-0.28482 10.917-0.49053 7.6575-0.35802 13.5 0.82275 13.5 2.7284 0 0.94334-8.3722 0.93082-19.169-0.0287zm-117.47-17.6c-1.0489-2.7334 2.2467-5.9258 11.254-10.902 4.8879-2.7001 9.6402-5.8385 10.561-6.9743 1.6218-2.0012 1.7355-2.0088 3.6828-0.24652 1.5566 1.4087 2.7569 1.643 5.3265 1.0398 1.8244-0.42826 4.0024-0.6847 4.8399-0.56985 0.83749 0.11484 3.0624-0.92715 4.9443-2.3156 1.8819-1.3884 4.2862-2.5244 5.3431-2.5244 1.0568 0 4.1363-0.78664 6.8434-1.7481 4.3388-1.541 5.0341-1.5706 5.8689-0.25 0.60268 0.95336 0.9526 1.0529 0.96235 0.27377 0.0397-3.1738 12.178-5.6698 26.741-5.499 8.2884 0.0972 10.526 0.85557 9.7488 3.304-0.70092 2.2084-0.17137 2.3627 2.7475 0.80061 1.7507-0.93694 2.3686-0.74989 3.8025 1.1511 1.2594 1.6696 2.3322 2.1077 4.057 1.6566 1.3864-0.36255 2.9731-0.0497 3.8817 0.76525 0.84529 0.75815 2.8522 1.5286 4.4598 1.7121 1.6076 0.18351 3.0888 0.83985 3.2916 1.4585 0.2632 0.80289-5.1531 1.1768-18.923 1.3064-30.079 0.28303-56.184 3.5014-62.66 7.7252-1.7495 1.141-3.7088 1.3787-7.5 0.90975-6.6592-0.82369-12.53 0.97341-20.522 6.2816-6.8726 4.5649-7.8956 4.874-8.7512 2.6445zm86.891-2.7423c0.22917-0.6875 0.94167-1.205 1.5833-1.15 0.64167 0.055 2.3182 0.1675 3.7257 0.25 3.843 0.22526 1.8723 2.15-2.2014 2.15-2.375 0-3.3884-0.40763-3.1076-1.25zm-31.25-37.563c0-0.4471 1.3272-2.0844 2.9493-3.6385 2.1129-2.0243 3.0346-3.9509 3.25-6.7938 0.28126-3.7113 0.58501-4.064 4.691-5.4465 4.8362-1.6284 10.605-1.0661 11.442 1.1153 0.69579 1.8132 9.5585 2.9752 13.804 1.8099 4.3045-1.1814 9.5949 0.99898 13.322 5.4904l2.6753 3.224-3.317 2.0223c-1.9278 1.1753-5.2016 2.0601-7.817 2.1125-21.731 0.43577-22.498 0.40537-22.234-0.8811 0.27629-1.348-1.2915-1.2358-12.065 0.8633-5.8688 1.1434-6.7008 1.1586-6.7008 0.12213zm32.172-24.229c-3.6239-2.2038-7.1719-8.5947-7.1719-12.918 0-1.9126-0.50988-3.0398-1.375-3.0398-0.75625 0-2.7593-0.27685-4.4511-0.61523-2.6074-0.52147-3.5407-0.10656-6.125 2.7229l-3.0489 3.3381v-2.9084c0-1.5996-0.95693-3.927-2.1265-5.172-1.1696-1.245-1.8681-2.9371-1.5522-3.7602 0.63463-1.6538 9.4755-4.6051 13.795-4.6051 1.5144 0 3.8649-0.42259 5.2234-0.9391 1.6285-0.61915 5.6538-0.4833 11.815 0.39875 13.794 1.9748 15.105 2.774 9.746 5.9398-1.7045 1.0069-3.7431 3.372-4.5303 5.2559-1.5048 3.6015-2.1342 3.6087-6.0697 0.0693-2.5427-2.2868-5.3009-1.6773-5.3009 1.1713 0 1.7864 2.1097 3.96 6.4097 6.604 0.96356 0.59247 1.7209 2.5729 1.8583 4.8597 0.30116 5.0108-2.4663 6.4142-7.0961 3.5986zm-24.158-0.70834c8e-3 -0.9625 0.28418-2.7594 0.61481-3.993 0.57584-2.1486 0.72269-2.0901 3.4864 1.3875 1.5868 1.9968 2.8852 3.7937 2.8852 3.993 0 0.19938-1.575 0.3625-3.5 0.3625-2.6719 0-3.4968-0.41407-3.4864-1.75zm15.986-35.25c-0.86059-0.55616-1.002-0.9759-0.33179-0.98469 0.64252-8e-3 1.8851-0.29041 2.7613-0.62665 1.166-0.44745 1.4274-0.17937 0.9748 1-0.71113 1.8532-1.315 1.9616-3.4044 0.61134z" fill="#6e523a"/>
  </g>
  <path d="m447.23 1123.2c13.21 51.841 20.509 50.146 45.644 56.052 43.145-14.446 37.104-38.242 36.993-55.124 0.94607-3.8355 4.2806-12.818-1.9788-16.212-16.885-9.1549-57.468-9.3447-75.467 1.7729-4.064 2.5102-2.9711 9.9483-5.1912 13.511z" fill="#f0f594" fill-rule="evenodd" stroke-width="0"/>
  <path d="m458.99 1183.1c1.4463 7.7264 15.528 19.786 22.097 5.682-11.144-8.9293-8.614-7.811-22.097-5.682z" fill="#f0f594" fill-rule="evenodd" stroke-width="0"/>
  <path d="m493.82 1185.6 6.2392-3.1196 3.6024 6.2763c-1.7351 10.828-18.243 13.647-9.8416-3.1567z" fill="#f0f594" fill-rule="evenodd" stroke-width="0"/>
 </g>
</svg>
