<?xml version='1.0' encoding='utf-8'?>
<svg xmlns="http://www.w3.org/2000/svg" enable-background="new 0 0 1000 1000" version="1.1" viewBox="0 0 1e3 1e3"> <style type="text/css"> .st0{fill:#A07E55;} .st1{fill:#7B9F41;} .st2{fill:#596B36;} .st3{fill:#F2D9D9;} .st4{fill:#D7AB43;} .st5{fill:#E8C77C;} .st6{fill:#F7A99D;} .st7{fill:#C18680;} </style> <rect class="st0" width="1e3" height="1e3"/> <path class="st1" d="m443.79 726.84c-34.955-41.464-47.891-96.759-57.502-150.13-11.295-62.72-19.542-126.58-14.324-190.09s24.712-127.14 64.138-177.21c11.84-15.036 26.347-29.323 44.867-34.148 19.595-5.1062 40.923 1.4912 57.079 13.698 16.156 12.207 27.781 29.46 37.289 47.337 34.129 64.172 44.008 139.09 39.51 211.63-4.4988 72.544-22.652 143.49-41.908 213.57-3.3242 12.099-6.7907 24.426-13.798 34.834-16.714 24.827-48.561 39.17-78.49 39.17l-36.861-8.6578z"/> <path class="st1" d="m387.87 392.11c-16.31 6.3334-34.478-1.7756-49.352-10.99-30.652-18.991-58.26-44.054-75.691-75.619s-23.865-70.091-12.791-104.41c3.4495-10.689 8.9237-21.319 18.272-27.546 19.551-13.024 47.665-0.47411 59.992 19.524s13.467 44.631 15.462 68.038c1.9944 23.407 5.9443 48.392 22.064 65.48 10.55 11.184 26.465 19.154 30.009 34.115l-7.9648 31.406z"/> <path class="st1" d="m582.3 402.62c6.8497-8.3299 12.275-17.828 15.972-27.959 3.4302-9.4019 5.3622-19.275 8.223-28.866 6.7714-22.7 19.689-44.663 40.177-56.554 20.488-11.891 49.343-10.991 65.499 6.3332 9.3845 10.063 13.494 24.3 13.062 38.053s-5.0598 27.09-11.291 39.359c-3.9567 7.7908-8.665 15.355-15.157 21.204-6.9838 6.2924-15.678 10.298-24.226 14.209-16.234 7.4286-34.14 15.026-51.389 10.42-9.3519-2.4973-18.427-5.686-28.107-5.686l-12.765-10.513z"/> <path class="st1" d="m407.76 583.55c-9.9417-12.824-24.107-21.619-38.312-29.462-13.481-7.4431-30.569-14.197-43.479-5.8019-9.6324 6.264-13 19.646-9.6606 30.64 3.3397 10.994 12.22 19.624 22.29 25.157 10.07 5.5329 21.36 8.37 32.508 11.152 4.0223 1.0039 8.0446 2.0078 12.067 3.0117 3.3802 0.84369 6.8897 1.6923 10.312 1.0425 6.0794-1.1542 10.438-6.9128 11.858-12.936 1.4205-6.0228 1.2846-12.693 0.34631-18.81l2.0685-3.9942z"/> <path class="st2" d="m358.96 373.08c-0.54102 0-1.085-0.1748-1.5439-0.53516-13.566-10.67-27.153-21.718-40.383-32.836-6.4014-5.3799-14.367-12.075-20.128-20.301-3.6406-5.1992-6.3125-10.776-9.1826-17.003-15.01-32.563-27.857-67.376-20.304-101.33 0.29883-1.3486 1.6348-2.2031 2.9834-1.8975 1.3477 0.2998 2.1973 1.6357 1.8975 2.9834-7.2324 32.506 5.3213 66.383 19.964 98.149 2.7676 6.0039 5.335 11.369 8.7373 16.229 5.3838 7.6875 13.072 14.149 19.249 19.341 13.188 11.084 26.732 22.097 40.258 32.734 1.085 0.85352 1.2725 2.4248 0.41895 3.5107-0.49316 0.62695-1.2266 0.9541-1.9668 0.9541z"/> <path class="st2" d="m360.17 351.25c-0.69043 0-1.3779-0.28418-1.8721-0.8418-15.422-17.409-32.873-38.465-45.384-62.646-13.165-25.446-19.097-51.516-17.154-75.391 0.1123-1.376 1.3291-2.3848 2.6953-2.2891 1.376 0.1123 2.4004 1.3184 2.2891 2.6953-1.8672 22.939 3.877 48.074 16.611 72.687 12.258 23.692 29.468 44.448 44.685 61.626 0.91602 1.0342 0.82031 2.6143-0.21289 3.5293-0.47656 0.42187-1.0684 0.62891-1.6572 0.62891z"/> <path class="st2" d="m622.71 366.33c-0.18164 0-0.36621-0.020508-0.55176-0.0625-1.3467-0.30273-2.1924-1.6406-1.8887-2.9883 1.5488-6.877 4.5635-13.21 7.4775-19.334 3.0742-6.458 6.252-13.136 10.352-19.266 10.349-15.477 26.627-27.009 44.66-31.64 1.3408-0.33887 2.7002 0.46191 3.0439 1.7998 0.34277 1.3379-0.46289 2.7002-1.7998 3.0439-16.857 4.3281-32.074 15.107-41.748 29.575-3.8975 5.8281-6.9961 12.339-9.9922 18.635-2.7969 5.877-5.6895 11.953-7.1162 18.285-0.26172 1.1611-1.293 1.9512-2.4365 1.9512z"/> <path class="st2" d="m627.2 399.5c-1.3096 0-2.4102-1.0186-2.4932-2.3438-0.085938-1.3779 0.96094-2.5654 2.3389-2.6514 31.052-1.9463 61.188-20.602 76.776-47.528 0.41992-0.72461 0.83594-1.4609 1.2539-2.2002 3.166-5.6064 6.4395-11.403 12.373-14.583 1.2158-0.65625 2.7324-0.19629 3.3838 1.0225 0.65234 1.2168 0.19434 2.7314-1.0225 3.3838-4.6543 2.4951-7.5654 7.6504-10.381 12.635-0.42676 0.75586-0.85156 1.5068-1.2793 2.248-16.656 28.77-47.614 47.934-80.792 50.013-0.052734 0.0029297-0.10645 0.0048828-0.1582 0.0048828z"/> <path class="st2" d="m648.06 369.68c-0.30762 0-0.62109-0.057617-0.92383-0.17871-1.2832-0.51074-1.9082-1.9648-1.3975-3.2471 1.9082-4.792 5.2812-8.665 8.292-11.919 10.035-10.846 21.434-20.385 33.879-28.351 1.1602-0.74512 2.707-0.40723 3.4531 0.75781 0.74414 1.1631 0.40527 2.709-0.75781 3.4531-12.087 7.7373-23.158 17.002-32.904 27.536-2.7061 2.9238-5.7256 6.3779-7.3174 10.372-0.38965 0.97949-1.3291 1.5762-2.3232 1.5762z"/> <path class="st2" d="m378.24 609.92c-1.1982 0-2.3779-0.11426-3.5186-0.25781-20.374-2.5479-38.968-15.422-48.523-33.599-0.64258-1.2217-0.17285-2.7334 1.0498-3.376 1.2197-0.64258 2.7334-0.1748 3.376 1.0498 8.8066 16.751 25.941 28.615 44.72 30.964 1.8623 0.2334 3.8184 0.38086 5.502-0.1123 1.3281-0.39453 2.7139 0.37012 3.1025 1.6943 0.38867 1.3252-0.37012 2.7139-1.6943 3.1025-1.3438 0.39453-2.6904 0.53418-4.0137 0.53418z"/> <path class="st2" d="m383.5 587.93c-0.66602 0-1.3301-0.26465-1.8223-0.78809-11.44-12.178-26.688-21.037-42.935-24.946-1.3418-0.32324-2.1689-1.6729-1.8457-3.0156 0.32227-1.3418 1.6729-2.1689 3.0156-1.8457 17.182 4.1338 33.309 13.504 45.409 26.384 0.94531 1.0068 0.89551 2.5889-0.11035 3.5342-0.48242 0.45312-1.0977 0.67773-1.7119 0.67773z"/> <path class="st2" d="m451.32 714.02c-0.95508 0-1.8672-0.55078-2.2832-1.4795-46.72-104.42-66.363-219.87-56.808-333.87 6.5986-78.707 27.922-135.86 65.189-174.73 0.95605-0.99707 2.54-1.0293 3.5352-0.074219 0.99609 0.95605 1.0293 2.5381 0.074219 3.5352-36.443 38.006-57.317 94.164-63.816 171.68-9.4854 113.16 10.014 227.76 56.39 331.41 0.56348 1.2598-9.766e-4 2.7383-1.2617 3.3027-0.33105 0.14844-0.67773 0.21875-1.0195 0.21875z"/> <path class="st2" d="m546.92 706.06c-0.16895 0-0.33887-0.017578-0.51074-0.052734-1.3516-0.28125-2.2207-1.6045-1.9404-2.9561 18.723-90.266 34.282-171.84 35.034-256.16 0.86523-97.013-19.037-180.43-59.156-247.94-0.70508-1.1875-0.31445-2.7207 0.87207-3.4268 1.1855-0.70312 2.7207-0.31445 3.4268 0.87207 21.139 35.571 36.919 76.215 46.902 120.8 9.0059 40.22 13.364 83.87 12.955 129.74-0.75586 84.768-16.36 166.6-35.138 257.13-0.24512 1.1807-1.2852 1.9932-2.4453 1.9932z"/> <path class="st2" d="m484.86 722.7c-1.0879 0-2.0889-0.71582-2.4023-1.8135-23.676-82.823-36.62-168.96-38.476-256.02-1.8555-87.059 7.4092-173.67 27.534-257.43 0.32227-1.3428 1.6719-2.1709 3.0146-1.8467 1.3428 0.32227 2.1689 1.6719 1.8467 3.0146-40.381 168.05-36.616 344.72 10.887 510.9 0.37988 1.3281-0.38867 2.7119-1.7158 3.0908-0.22949 0.066437-0.46094 0.097687-0.68848 0.097687z"/> <path class="st2" d="m513.02 718.79c-0.077148 0-0.15527-0.0029297-0.2334-0.010742-1.375-0.12695-2.3858-1.3447-2.2588-2.7197 15.848-171.22 9.6289-344.04-18.484-513.67-0.22559-1.3623 0.69629-2.6494 2.0576-2.876 1.3652-0.22754 2.6494 0.69531 2.876 2.0576 28.183 170.05 34.417 343.31 18.529 514.95-0.12012 1.2969-1.21 2.2695-2.4863 2.2695z"/> <path class="st2" d="m579.39 258.07c-0.50586 0-1.0166-0.15332-1.459-0.47168-1.1201-0.80664-1.375-2.3691-0.56738-3.4892l8.5322-11.847c0.80664-1.1201 2.3682-1.374 3.4893-0.56738 1.1201 0.80664 1.375 2.3691 0.56738 3.4893l-8.5322 11.847c-0.48828 0.67871-1.2539 1.0391-2.0303 1.0391z"/> <path class="st2" d="m591.78 288.25c-0.52246 0-1.0488-0.16309-1.499-0.50098-1.1045-0.8291-1.3271-2.3965-0.49805-3.5l7.8965-10.516c0.82812-1.1045 2.3936-1.3281 3.5-0.49805 1.1045 0.8291 1.3271 2.3955 0.49805 3.5l-7.8965 10.516c-0.49121 0.6543-1.2412 0.99902-2.001 0.99902z"/> <path class="st2" d="m404.54 264.45c-0.74805 0-1.4883-0.33398-1.9814-0.97266l-7.7158-9.998c-0.84277-1.0928-0.64062-2.6631 0.45215-3.5068 1.0947-0.8418 2.6631-0.6416 3.5068 0.45215l7.7158 9.998c0.84277 1.0928 0.64062 2.6631-0.45215 3.5068-0.45508 0.35059-0.99219 0.52051-1.5254 0.52051z"/> <path class="st2" d="m433.07 299.58c-0.80273 0-1.5908-0.38574-2.0742-1.1006l-6.4277-9.5186c-0.77246-1.1445-0.4707-2.6982 0.67285-3.4717 1.1455-0.77051 2.6982-0.47168 3.4717 0.67285l6.4277 9.5186c0.77246 1.1445 0.4707 2.6982-0.67285 3.4717-0.42969 0.28906-0.91602 0.42773-1.3975 0.42773z"/> <path class="st2" d="m473.65 305.01c-0.51758 0-1.04-0.16016-1.4883-0.49219-1.1084-0.82324-1.3398-2.3896-0.51758-3.498l9.7969-13.199c0.82422-1.1084 2.3887-1.3389 3.498-0.51758 1.1084 0.82324 1.3398 2.3896 0.51758 3.498l-9.7969 13.199c-0.49121 0.66113-1.2451 1.0098-2.0098 1.0098z"/> <path class="st2" d="m485.1 347.25c-0.67676 0-1.3506-0.27246-1.8438-0.81055-0.93262-1.0176-0.86426-2.5986 0.15332-3.5322l8.5742-7.8613c1.0166-0.93262 2.5986-0.86523 3.5322 0.15332 0.93262 1.0176 0.86426 2.5986-0.15332 3.5322l-8.5742 7.8613c-0.47949 0.43945-1.085 0.65723-1.6885 0.65723z"/> <path class="st2" d="m304.32 186.26c-0.42676 0-0.8584-0.1084-1.2539-0.33789-1.1934-0.69336-1.5996-2.2236-0.90625-3.418l9.1738-15.799c0.69336-1.1943 2.2246-1.5986 3.418-0.90625 1.1934 0.69336 1.5996 2.2236 0.90625 3.418l-9.1738 15.799c-0.46387 0.79883-1.3027 1.2441-2.1641 1.2441z"/> <path class="st2" d="m329.92 233.52c-0.59082 0-1.1836-0.20801-1.6602-0.63184-1.0322-0.91699-1.125-2.4971-0.20703-3.5293l17.345-19.506c0.91797-1.0312 2.4961-1.125 3.5293-0.20703 1.0322 0.91797 1.125 2.498 0.20703 3.5293l-17.345 19.506c-0.49414 0.55566-1.1797 0.83887-1.8691 0.83887z"/> <path class="st2" d="m254.39 266.07c-0.2959 0-0.59473-0.052734-0.8877-0.16406l-16.906-6.418c-1.29-0.49023-1.9395-1.9336-1.4492-3.2246 0.49023-1.291 1.9355-1.9394 3.2246-1.4492l16.906 6.418c1.29 0.49023 1.9395 1.9336 1.4492 3.2246-0.37891 0.99805-1.3291 1.6133-2.3369 1.6133z"/> <path class="st2" d="m293.97 283.63c-1.1484 0-2.1836-0.79688-2.4395-1.9648-0.81543-3.708 1.1514-7.7432 4.5742-9.3877 1.2461-0.5957 2.7383-0.072266 3.3359 1.1719s0.073242 2.7383-1.1719 3.3359c-1.3428 0.64453-2.1748 2.3525-1.8555 3.8076 0.29688 1.3486-0.55664 2.6816-1.9053 2.9775-0.18066 0.040039-0.36133 0.05957-0.53809 0.05957z"/> <path class="st2" d="m335.9 276.98c-0.60742 0-1.2168-0.21973-1.6973-0.66504-1.0137-0.93848-1.0742-2.5205-0.13672-3.5332l17.067-18.437c0.93848-1.0127 2.5205-1.0752 3.5332-0.13672 1.0137 0.93848 1.0742 2.5205 0.13672 3.5332l-17.067 18.438c-0.49316 0.53223-1.1631 0.80176-1.8359 0.80176z"/> <path class="st2" d="m345.97 551.91c-1.3174 0-2.4199-1.0303-2.4941-2.3613l-0.61914-11.182c-0.076172-1.3779 0.97949-2.5576 2.3584-2.6338 1.3994-0.091797 2.5576 0.98047 2.6338 2.3584l0.61914 11.18c0.076172 1.3789-0.97852 2.5586-2.3574 2.6348-0.046875 0.0029297-0.094726 0.0039063-0.14062 0.0039063z"/> <path class="st2" d="m358.8 588.84c-0.94434 0-1.8477-0.53711-2.2705-1.4502l-4.5752-9.876c-0.58008-1.2529-0.035156-2.7393 1.2178-3.3193 1.2539-0.57812 2.7393-0.035156 3.3193 1.2178l4.5752 9.876c0.58008 1.2529 0.035156 2.7383-1.2178 3.3193-0.33984 0.15723-0.69727 0.23242-1.0488 0.23242z"/> <path class="st2" d="m368.43 561.84c-1.208 0-2.2705-0.87598-2.4658-2.1064l-1.8887-11.849c-0.21777-1.3633 0.71191-2.6445 2.0752-2.8623 1.3584-0.22363 2.6445 0.71191 2.8623 2.0752l1.8887 11.849c0.2168 1.3643-0.71191 2.6455-2.0752 2.8623-0.13379 0.021484-0.26562 0.03125-0.39648 0.03125z"/> <path class="st2" d="m317.58 593.87c-1.3184 0-2.4219-1.0312-2.4941-2.3643-0.075195-1.3789 0.98145-2.5566 2.3604-2.6318l11.836-0.64355c1.3799-0.085938 2.5576 0.98145 2.6318 2.3604 0.075195 1.3789-0.98145 2.5566-2.3604 2.6318l-11.836 0.64355c-0.045898 0.0029296-0.091797 0.0039062-0.1377 0.0039062z"/> <path class="st2" d="m662.13 289.55c-1.3809 0-2.5-1.1191-2.5-2.5v-11.178c0-1.3809 1.1191-2.5 2.5-2.5s2.5 1.1191 2.5 2.5v11.178c0 1.3809-1.1191 2.5-2.5 2.5z"/> <path class="st2" d="m633.9 308.11c-1.1289 0-2.1533-0.77051-2.4287-1.917l-3.8027-15.814c-0.32324-1.3428 0.50391-2.6934 1.8457-3.0156 1.3506-0.32031 2.6934 0.50488 3.0156 1.8457l3.8027 15.816c0.32324 1.3418-0.50391 2.6924-1.8467 3.0146-0.19629 0.046875-0.39258 0.070313-0.58594 0.070313z"/> <path class="st2" d="m688.98 315.84c-0.09668 0-0.19531-0.0058594-0.29395-0.016602-1.3711-0.16113-2.3525-1.4033-2.1924-2.7744 0.54883-4.6836 3.2314-9.0225 7.1748-11.606 1.1504-0.75781 2.7041-0.43555 3.4609 0.7207 0.75684 1.1543 0.43457 2.7041-0.7207 3.4609-2.6797 1.7559-4.5752 4.8242-4.9482 8.0068-0.14941 1.2725-1.2295 2.209-2.4805 2.209z"/> <path class="st2" d="m675.75 361.59c-0.80957 0-1.6035-0.39258-2.085-1.1172-0.76367-1.1504-0.4502-2.7021 0.7002-3.4658l11.85-7.8682c1.1475-0.76367 2.7021-0.45312 3.4648 0.69922 0.76465 1.1494 0.45117 2.7012-0.69922 3.4648l-11.85 7.8701c-0.4248 0.28223-0.90527 0.41699-1.3809 0.41699z"/> <path class="st2" d="m717.98 313.81c-0.85547 0-1.6885-0.43945-2.1553-1.2295-0.70117-1.1885-0.30664-2.7217 0.88281-3.4238l11.167-6.5928c1.1865-0.70117 2.7217-0.30664 3.4238 0.88281 0.70117 1.1885 0.30664 2.7217-0.88281 3.4238l-11.167 6.5928c-0.39844 0.23535-0.83594 0.34668-1.2686 0.34668z"/> <path class="st2" d="m722.66 381.52c-0.60938 0-1.2207-0.22168-1.7021-0.66992-3.6484-3.3945-9.5615-4.3018-14.061-2.1602-1.249 0.59375-2.7393 0.064453-3.332-1.1816-0.59375-1.2471-0.064453-2.7383 1.1816-3.332 6.3799-3.0381 14.445-1.7998 19.617 3.0137 1.0107 0.94043 1.0674 2.5225 0.12695 3.5332-0.49219 0.5293-1.1602 0.79687-1.8311 0.79687z"/> <path class="st2" d="m544.44 350.71c-0.5957 0-1.1943-0.21191-1.6719-0.64258-1.0264-0.92383-1.1094-2.5039-0.18457-3.5303l11.837-13.148c0.92383-1.0244 2.5029-1.1094 3.5312-0.18555 1.0264 0.92383 1.1094 2.5049 0.18555 3.5312l-11.839 13.148c-0.49316 0.54785-1.1748 0.82715-1.8584 0.82715z"/> <path class="st2" d="m542.46 398.05c-0.70996 0-1.415-0.30078-1.9092-0.88477-0.89258-1.0547-0.76074-2.6318 0.29297-3.5234l8.5479-7.2324c1.0537-0.8916 2.6318-0.76074 3.5234 0.29297s0.76074 2.6318-0.29297 3.5234l-8.5479 7.2324c-0.46973 0.39746-1.0439 0.5918-1.6143 0.5918z"/> <path class="st2" d="m472.76 187.64c-1.0957 0-2.1006-0.72559-2.4082-1.832l-3.2881-11.835c-0.36914-1.3301 0.41016-2.708 1.7402-3.0781 1.332-0.36914 2.709 0.41113 3.0781 1.7402l3.2881 11.835c0.36914 1.3301-0.41016 2.708-1.7402 3.0781-0.22363 0.061523-0.44922 0.091797-0.66992 0.091797z"/> <path class="st2" d="m506.3 188.95c-0.3457 0-0.69727-0.072266-1.0322-0.22461-1.2568-0.57129-1.8135-2.0537-1.2422-3.3105l3.2891-7.2334c0.57129-1.2559 2.0518-1.8154 3.3105-1.2402 1.2568 0.57129 1.8125 2.0537 1.2402 3.3105l-3.2871 7.2314c-0.41895 0.92188-1.3271 1.4668-2.2783 1.4668z"/> <path class="st2" d="m471.28 464.56c-0.86328 0-1.7021-0.44727-2.166-1.248l-7.2305-12.494c-0.69141-1.1953-0.2832-2.7246 0.91211-3.416 1.1934-0.69043 2.7236-0.28223 3.416 0.91211l7.2305 12.494c0.69141 1.1953 0.2832 2.7246-0.91211 3.416-0.39355 0.22754-0.8252 0.33594-1.25 0.33594z"/> <path class="st2" d="m411.22 450.24c-0.8291 0-1.6406-0.41211-2.1162-1.166l-8.665-13.734c-0.7373-1.168-0.3877-2.7119 0.78027-3.4482 1.167-0.73828 2.7109-0.38867 3.4482 0.78027l8.665 13.734c0.7373 1.168 0.3877 2.7119-0.78027 3.4482-0.41406 0.26172-0.87598 0.38574-1.332 0.38574z"/> <path class="st2" d="m376.93 476.92c-0.54102 0-1.0859-0.1748-1.5449-0.53613l-20.253-15.947c-1.085-0.85352-1.2715-2.4258-0.41699-3.5107 0.85352-1.084 2.4238-1.2725 3.5107-0.41699l20.253 15.947c1.085 0.85352 1.2715 2.4258 0.41699 3.5107-0.49316 0.62598-1.2256 0.95312-1.9658 0.95312z"/> <path class="st2" d="m607.56 472.35c-0.93652 0-1.834-0.52832-2.2617-1.4307-0.59082-1.248-0.058594-2.7383 1.1895-3.3301l12.492-5.918c1.249-0.58887 2.7393-0.058594 3.3301 1.1895s0.058594 2.7383-1.1895 3.3301l-12.492 5.918c-0.3457 0.16309-0.70996 0.24121-1.0684 0.24121z"/> <path class="st2" d="m588.2 543.58c-0.80957 0-1.6035-0.39258-2.085-1.1172-0.76367-1.1504-0.4502-2.7021 0.7002-3.4658l15.041-9.9863c1.1475-0.76172 2.7012-0.4502 3.4658 0.7002 0.76367 1.1504 0.4502 2.7021-0.7002 3.4658l-15.041 9.9863c-0.42578 0.28223-0.90527 0.41699-1.3809 0.41699z"/> <path class="st2" d="m531.28 598.6c-0.45996 0-0.9248-0.12598-1.3408-0.39062-1.1641-0.74219-1.5078-2.2871-0.7666-3.4521l4.6025-7.2314c0.74121-1.167 2.2871-1.5078 3.4512-0.76758 1.165 0.74121 1.5088 2.2861 0.76758 3.4512l-4.6025 7.2334c-0.47656 0.74805-1.2852 1.1572-2.1113 1.1572z"/> <path class="st2" d="m485.95 590.69c-1.0381 0-2.0068-0.65137-2.3633-1.6865-1.8252-5.2998-0.97363-11.449 2.2217-16.051 0.78906-1.1338 2.3467-1.4131 3.4795-0.62793 1.1348 0.78809 1.415 2.3457 0.62793 3.4795-2.3037 3.3174-2.918 7.751-1.6025 11.57 0.4502 1.3057-0.24414 2.7285-1.5488 3.1777-0.26953 0.09375-0.54492 0.1377-0.81445 0.1377z"/> <path class="st2" d="m432.58 605.91c-0.63184 0-1.2637-0.23828-1.751-0.71484l-5.9736-5.8623c-0.98535-0.9668-1-2.5498-0.033203-3.5352 0.96777-0.98535 2.5518-0.99902 3.5352-0.033203l5.9736 5.8604c0.98535 0.9668 1.001 2.5498 0.03418 3.5361-0.49023 0.49902-1.1377 0.74902-1.7852 0.74902z"/> <path class="st2" d="m454.36 664.34c-0.48828 0-0.98145-0.14258-1.4141-0.44043l-10.521-7.2344c-1.1377-0.78223-1.4248-2.3389-0.64258-3.4766 0.78125-1.1367 2.3398-1.4248 3.4766-0.64258l10.519 7.2344c1.1377 0.78223 1.4268 2.3379 0.64355 3.4756-0.48438 0.70508-1.2666 1.084-2.0615 1.084z"/> <path class="st2" d="m413.51 663.18c-0.36816 0-0.74316-0.082031-1.0967-0.25488l-9.7754-4.7812c-1.2402-0.60742-1.7539-2.1045-1.1475-3.3447 0.6084-1.2402 2.1055-1.7529 3.3447-1.1475l9.7754 4.7812c1.2402 0.60645 1.7539 2.1045 1.1475 3.3447-0.43359 0.88672-1.3232 1.4023-2.248 1.4023z"/> <path class="st2" d="m495.78 660.4c-0.54785 0-1.0986-0.17871-1.5596-0.54785-1.0781-0.8623-1.2529-2.4355-0.39062-3.5137l5.2598-6.5752c0.86035-1.0771 2.4346-1.2549 3.5137-0.39062 1.0781 0.8623 1.2529 2.4355 0.39062 3.5137l-5.2598 6.5752c-0.49316 0.61719-1.2207 0.93848-1.9541 0.93848z"/> <path class="st2" d="m544.32 634.59c-0.79102 0-1.5693-0.37402-2.0547-1.0732-0.78809-1.1338-0.50781-2.6914 0.62598-3.4795l6.5908-4.5811c1.1338-0.78809 2.6924-0.50684 3.4795 0.62598 0.78809 1.1338 0.50781 2.6914-0.62598 3.4795l-6.5908 4.5811c-0.43457 0.30273-0.93262 0.44727-1.4248 0.44727z"/> <path class="st2" d="m578.62 638.03c-0.79785 0-1.5811-0.38086-2.0654-1.0889-0.7793-1.1396-0.4873-2.6953 0.65234-3.4746l12.496-8.5439c1.1396-0.7793 2.6963-0.4873 3.4746 0.65234 0.7793 1.1406 0.4873 2.6963-0.65234 3.4746l-12.496 8.5439c-0.43164 0.29492-0.92285 0.43652-1.4092 0.43652z"/> <path class="st2" d="m549.59 507.09c-0.64258 0-1.2852-0.24609-1.7734-0.73828-0.97363-0.97949-0.96777-2.5625 0.011719-3.5352l8.5752-8.5205c0.97949-0.97266 2.5635-0.96875 3.5352 0.011719 0.97363 0.97949 0.96777 2.5625-0.011719 3.5352l-8.5752 8.5205c-0.4873 0.48437-1.125 0.72656-1.7617 0.72656z"/> <path class="st2" d="m480.66 520.35c-0.7793 0-1.5479-0.36328-2.0361-1.0459l-3.2881-4.6035c-0.80273-1.124-0.54199-2.6855 0.58105-3.4873 1.124-0.80176 2.6855-0.54199 3.4873 0.58105l3.2881 4.6016c0.80273 1.123 0.54297 2.6846-0.58008 3.4883-0.44043 0.31445-0.94922 0.46582-1.4521 0.46582z"/> <path class="st2" d="m429.17 524.44c-0.77344 0-1.5371-0.3584-2.0264-1.0322l-4.7109-6.498c-0.80957-1.1182-0.56055-2.6816 0.55664-3.4922 1.1172-0.80957 2.6807-0.56055 3.4922 0.55664l4.7109 6.498c0.80957 1.1182 0.56055 2.6816-0.55664 3.4922-0.44336 0.32129-0.95703 0.47559-1.4658 0.47559z"/> <path class="st2" d="m430.68 390.82c-0.91699 0-1.7998-0.50684-2.2383-1.3828l-3.9453-7.8906c-0.61719-1.2354-0.11621-2.7373 1.1182-3.3545 1.2354-0.61816 2.7363-0.11719 3.3545 1.1182l3.9453 7.8906c0.61719 1.2344 0.11719 2.7363-1.1182 3.3545-0.3584 0.17871-0.74023 0.26465-1.1162 0.26465z"/> <path class="st2" d="m485.96 413.16c-1.1934 0-2.249-0.85645-2.46-2.0723-0.7041-4.0547 0.90723-8.3467 4.1045-10.935 1.0752-0.86719 2.6484-0.70215 3.5166 0.37012 0.86816 1.0732 0.70312 2.6475-0.37012 3.5166-1.7832 1.4434-2.7178 3.9316-2.3252 6.1924 0.23633 1.3604-0.6748 2.6543-2.0352 2.8906-0.14453 0.025391-0.28906 0.037109-0.43066 0.037109z"/> <path class="st2" d="m552.96 450.62c-0.72363 0-1.4414-0.3125-1.9355-0.91699-0.875-1.0684-0.7168-2.6436 0.35156-3.5176l7.2334-5.918c1.0684-0.87598 2.6426-0.71973 3.5176 0.35156 0.875 1.0684 0.7168 2.6436-0.35156 3.5176l-7.2334 5.918c-0.46484 0.38086-1.0244 0.56543-1.582 0.56543z"/> <path class="st3" d="m288.07 171.98c-9.8053-3.5488-18.065-10.452-25.113-18.138-5.1389-5.6041-10.033-13.11-7.622-20.321 0.51843-1.5509 1.5267-3.119 3.1112-3.5229 0.82141-0.2094 1.6891-0.075195 2.5167 0.1086 6.327 1.4052 11.917 5.8149 14.757 11.641-1.4037-4.4399-2.1543-9.1859-1.3239-13.768 0.83035-4.5818 3.4039-8.9856 7.4478-11.294 1.2277-0.70087 2.6454-1.2097 4.0405-0.98167 2.4695 0.40359 3.9937 2.882 4.9461 5.196 5.1343 12.474 3.2485 26.712 6.4592 39.813 2.8432-7.6851 3.525-16.046 6.4635-23.695 2.9385-7.6492 9.1633-14.982 17.343-15.478 0.59753-0.036202 1.2695-0.0066299 1.6859 0.42345 0.45242 0.46728 0.41754 1.2089 0.32309 1.8524-0.50238 3.4239-1.8613 6.7187-3.9187 9.5012 2.6161-4.0384 7.3579-6.1013 11.92-7.6324 3.6313-1.2189 7.8727-2.1754 11.09-0.097107 2.4692 1.5949 3.6682 4.709 3.5346 7.6455-0.13354 2.9365-1.4222 5.7095-3.0406 8.1633-6.6243 10.044-18.451 15.414-26.275 24.555 7.7245-3.6975 16.89-2.2018 25.093 0.25539 3.2513 0.97379 7.0315 2.775 7.2972 6.1585 0.15402 1.9608-1.0094 3.7865-2.3533 5.2227-3.6165 3.8647-8.9496 6.0604-14.239 5.8623 4.256 1.0463 7.5878 4.5787 9.3156 8.6066 1.7277 4.0278 2.0527 8.5153 1.9817 12.898-0.038696 2.3882-0.55365 5.2967-2.8034 6.0989-1.6806 0.59923-3.492-0.33344-4.9916-1.3002-2.4898-1.6052-4.858-3.3914-7.1856-5.2239-8.8307-6.952-17.362-14.939-21.741-25.29 2.2372 5.3157 4.4973 10.715 5.2125 16.438 0.71518 5.7228-0.30023 11.912-4.006 16.331-2.6203 3.1248-6.3233 5.1035-9.9359 6.9955-1.5441 0.80865-3.3153 1.6367-4.9629 1.0679-1.4325-0.49454-2.3259-1.9164-2.8969-3.3201-2.0001-4.9166-1.2831-10.843 1.8318-15.14-0.8916 4.084-2.9358 8.1517-6.521 10.301-3.5853 2.1493-8.8795 1.6944-11.244-1.7531-0.91196-1.3298-1.3208-2.9527-1.4254-4.5618-0.33591-5.1693 2.2978-10.095 5.5492-14.128 3.2513-4.0328 7.1858-7.5004 10.196-11.716-8.579 8.1139-20.218 12.911-32.023 13.199-3.4082 0.08313-7.0209-0.26364-9.7878-2.2555-3.4623-2.4925-4.8385-7.5042-3.1345-11.415 1.7039-3.9111 6.3113-6.316 10.494-5.4776-2.3884 0.080978-4.834 0.1544-7.1069-0.58374-2.2729-0.73813-4.377-2.4634-4.8824-4.7991-0.92126-4.2579 3.7197-7.7712 8.0247-8.4388 6.3272-0.98112 12.635 1.4245 18.587 3.7855 5.9022 2.3414 11.824 4.5669 17.727 6.9083l1.5852 1.3036z"/> <path class="st4" d="m307.77 149.8c-0.40018-1.5284-1.9816-2.3026-3.4435-1.7264-2.0314 0.80061-1.9663 2.8873-0.97742 4.1939-0.40445 2.3719-0.70511 4.6891-1.4605 7.0088-0.7756 2.3819-1.9057 4.7459-1.9431 7.2929-0.0064087 0.43486 0.63217 0.54327 0.75873 0.12013 1.1185-3.7399 2.9361-7.1919 3.7126-11.041 0.15707-0.77856 0.28052-1.5618 0.38916-2.348 0.63623 0.17523 1.3557 0.080704 2.075-0.44206 0.58386-0.42429 0.89297-1.1204 0.88849-1.8051 0.10117-0.40549 0.10922-0.83856 5.189e-4 -1.2537z"/> <path class="st4" d="m319.48 151.59c-1.2319-1.3213-3.542-0.93178-4.4705 0.55937-0.49094 0.7885-0.49179 1.7783-0.1123 2.5823-3.4062 4.0679-6.3678 8.7734-8.5148 13.591-0.26334 0.59096 0.51343 1.1037 0.88266 0.53104 1.7068-2.6471 3.3872-5.3146 5.1666-7.9141 0.90662-1.3246 1.8466-2.6268 2.8249-3.8995 0.27872-0.36263 0.5603-0.72404 0.84665-1.0815 0.12012 0.056778 0.24432 0.10774 0.37714 0.14502 1.2566 0.35284 2.576-0.51421 2.9171-1.7038 0.71106-0.76018 0.93103-1.8998 0.08252-2.8098z"/> <path class="st4" d="m293.46 167.94c-2.183-3.3009-4.7863-6.3332-7.5013-9.2081-0.016357-0.017349-0.033142-0.034348-0.0495-0.051682 0.62891-0.56673 1.003-1.4115 0.80438-2.4762-0.26443-1.418-1.6063-2.529-3.0741-2.0688-0.47748 0.1497-0.86627 0.41949-1.1496 0.75888-0.77258 0.46657-1.2878 1.3451-1.2012 2.3059 0.15424 1.7108 1.4688 2.3886 2.7714 2.2713 0.26016 0.248 0.51752 0.49493 0.75729 0.74632 0.86194 0.9037 1.7112 1.8205 2.5502 2.7455 1.7189 1.8951 3.3511 3.8663 5.0412 5.7866 0.49838 0.56628 1.4711-0.1749 1.0512-0.80974z"/> <path class="st4" d="m296.62 164.56c-0.91803-1.0825-1.3272-2.763-1.8576-4.0591-0.47025-1.1493-0.94192-2.2978-1.4204-3.4435 0.0092468-0.031708 0.018585-0.063354 0.02478-0.097214 1.0629-1.6107-0.98111-4.0185-2.7525-2.7484-0.47787 0.34262-0.73447 0.77057-0.82227 1.212-0.67245 1.0559 0.16129 1.9905 1.23 2.2847 0.20883 0.096176 0.43564 0.15823 0.67459 0.17738 0.54312 1.241 1.0927 2.4791 1.6431 3.717 0.61896 1.3921 1.1138 2.9525 2.1782 4.0773 0.70511 0.74516 1.7461-0.36075 1.102-1.1202z"/> <path class="st4" d="m295.19 170.68c-3.6411 0.058197-6.752 2.0019-10.122 3.1259-1.1555 0.38544-2.331 0.7182-3.5175 1.0009-0.094666-0.5648-0.40402-1.0568-0.94833-1.2897-0.11566-0.10539-0.24255-0.20009-0.38052-0.28011-1.7449-1.012-3.1417 0.58438-3.1394 2.1151-0.071686 0.31743-0.044434 0.6532 0.12412 0.99178 0.1741 0.34961 0.42609 0.57816 0.72571 0.72035 0.23535 0.16786 0.5206 0.30312 0.86758 0.38843 0.90067 0.22144 1.601-0.030655 2.0745-0.4989 0.24063-0.060577 0.46494-0.11916 0.66229-0.164 2.2754-0.51717 4.4958-1.25 6.6392-2.172 2.2667-0.97507 4.5038-2.4114 7.0137-2.5894 0.85568-0.060684 0.87784-1.3625 5.493e-4 -1.3484z"/> <path class="st4" d="m291.88 173.26c-1.097 1.3709-2.6519 2.1819-4.1323 3.0709-0.65561 0.39371-1.3 0.80481-1.899 1.2819-0.037567 0.029907-0.077972 0.060928-0.12015 0.092911-0.49582-0.37912-1.1582-0.4785-1.8582-0.018036-0.13922 0.091568-0.25613 0.20586-0.35117 0.33421-2.0216 0.97009-0.22198 4.347 2.0456 3.1676 0.961-0.49982 1.1698-1.4849 0.92618-2.3283 2.0092-1.8042 4.6136-2.6732 6.2923-4.8929 0.39261-0.5191-0.49268-1.2214-0.90332-0.70827z"/> <path class="st4" d="m296.13 174.75c-1.3002 1.9076-2.5615 3.8406-3.7766 5.8038-0.51624 0.834-1.0264 1.6718-1.5385 2.5083-0.059509-0.044266-0.11935-0.088272-0.1835-0.12796-1.1825-0.73183-2.8965-0.2643-3.3594 1.1052-0.089966 0.2661-0.10513 0.5714-0.06546 0.88782-0.037109 0.15054-0.048157 0.31105-0.031555 0.47597-0.2923 0.64636-0.21411 1.4193 0.46576 2.085 1.149 1.1251 3.0874 0.71495 3.8759-0.61067 0.384-0.64563 0.49347-1.419 0.34628-2.1346 0.43784-0.73006 0.87567-1.4601 1.3135-2.1902 1.4107-2.3521 2.7753-4.7286 4.0704-7.1461 0.39691-0.74091-0.64948-1.3423-1.1169-0.65654z"/> <path class="st4" d="m305.15 188.2c-0.28671-0.93039-1.0267-1.6424-1.8746-2.1201-0.054657-1.3812-0.1113-2.7624-0.1716-4.1435-0.11035-2.5281-0.39938-5.0909-0.37927-7.6189 0.0056152-0.70569-1.1584-0.91507-1.2718-0.17529-0.38205 2.4933-0.1264 5.0814-0.047516 7.5921 0.039673 1.2612 0.082581 2.5223 0.12671 3.7833-1.0121-0.018005-1.9312 0.57356-1.9871 1.7665-0.019562 0.418 0.062927 0.81624 0.21628 1.1881-0.51483 1.8935 2.1046 3.7493 4.088 2.8575 1.2074-0.54283 1.682-1.893 1.3009-3.1298z"/> <path class="st4" d="m315.5 181.08c-1.1765-1.3548-2.3725-2.6932-3.6101-3.9919-1.3613-1.4285-2.765-3.2117-4.6397-3.9584-0.38248-0.15236-0.75296 0.43539-0.42706 0.70158 1.5887 1.2976 2.8741 3.1795 4.2237 4.7229 0.96475 1.1033 1.9301 2.2052 2.8857 3.3158-0.097717 0.18967-0.13538 0.40771-0.056213 0.61183 0.030212 0.077972 0.064117 0.15274 0.099609 0.22598-0.54321 0.58972-0.89624 1.361-0.82358 2.1408 0.23669 2.5399 3.8105 2.7739 4.822 0.63829 0.82886-1.7501-0.6236-4.4101-2.4744-4.4069z"/> <path class="st4" d="m321.26 170.84c-0.22925-0.092209-0.5123-0.16118-0.82309-0.20363-0.25943-0.064362-0.52997-0.081665-0.79874-0.04538-1.0214 0.01445-2.1164 0.3073-2.6284 1.007-1.3257-0.14563-2.6939-0.087036-4.0012-0.42735-0.95258-0.24797-1.8659-0.41147-2.8533-0.4153-1.1801-0.0045776-2.4295 0.16144-3.475-0.49585-0.50397-0.31682-1.1289 0.43147-0.65903 0.83488 1.6789 1.4414 3.7192 0.81627 5.7019 1.3008 1.0409 0.25439 2.0174 0.58939 3.0925 0.68742 0.71826 0.065506 1.4435 0.064163 2.1474 0.16354 0.21692 0.23903 0.54181 0.40274 0.90082 0.49838 0.058716 0.11487 0.13007 0.22322 0.21014 0.32603 0.04306 0.079147 0.090302 0.1563 0.14212 0.23117 0.074158 0.15047 0.1817 0.28062 0.31924 0.37663 0.0072327 0.0070038 0.013275 0.014862 0.02063 0.021805 1.0977 1.0364 3.0066 0.95103 3.8864-0.32162 0.91571-1.3246 0.24313-2.9651-1.1825-3.5386z"/> <path class="st5" d="m299.67 162.16c-3.0686 0.28661-6.1674 1.6025-7.9787 4.096-1.8112 2.4935-1.9847 6.261 0.088379 8.5415 1.3569 1.4928 3.3856 2.1535 5.3396 2.6549 2.8691 0.73624 6.1662 1.1874 8.5807-0.52835 1.1655-0.8282 1.9686-2.0692 2.6296-3.3371 0.82019-1.5733 1.4779-3.3837 1.015-5.0965-0.26419-0.97777-0.87344-1.8279-1.5577-2.5746-1.9663-2.1458-4.6505-3.9327-7.5609-3.9327l-0.55597 0.1768z"/> <path class="st3" d="m706.89 308.74c-9.8053-3.5488-18.065-10.452-25.113-18.138-5.1389-5.6041-10.033-13.11-7.6221-20.321 0.51843-1.5508 1.5267-3.119 3.1112-3.5229 0.82141-0.20941 1.6892-0.075195 2.5167 0.10861 6.3269 1.4052 11.917 5.8149 14.757 11.641-1.4037-4.4399-2.1543-9.1859-1.3239-13.768 0.83038-4.5818 3.4039-8.9857 7.4478-11.294 1.2277-0.70087 2.6454-1.2097 4.0405-0.98167 2.4695 0.40358 3.9937 2.882 4.946 5.196 5.1343 12.474 3.2485 26.712 6.4592 39.813 2.8433-7.6851 3.525-16.046 6.4635-23.695 2.9386-7.6492 9.1634-14.982 17.343-15.478 0.5976-0.036194 1.2695-0.0066223 1.6859 0.42346 0.45239 0.46729 0.41748 1.2089 0.32306 1.8524-0.50238 3.4239-1.8613 6.7187-3.9187 9.5012 2.6161-4.0384 7.3579-6.1012 11.92-7.6324 3.6313-1.2189 7.8727-2.1754 11.09-0.097107 2.4692 1.5949 3.6682 4.709 3.5346 7.6455-0.13361 2.9365-1.4222 5.7095-3.0406 8.1634-6.6243 10.044-18.451 15.414-26.275 24.555 7.7246-3.6975 16.89-2.2018 25.093 0.25537 3.2513 0.97382 7.0314 2.775 7.2972 6.1585 0.15399 1.9608-1.0094 3.7865-2.3533 5.2227-3.6165 3.8647-8.9496 6.0604-14.239 5.8623 4.256 1.0463 7.5878 4.5787 9.3156 8.6065 1.7277 4.0278 2.0527 8.5154 1.9817 12.898-0.038696 2.3882-0.55365 5.2967-2.8034 6.0988-1.6805 0.59924-3.4921-0.3334-4.9916-1.3002-2.4898-1.6053-4.858-3.3914-7.1857-5.2239-8.8307-6.952-17.362-14.939-21.741-25.29 2.2372 5.3157 4.4974 10.715 5.2125 16.438s-0.30023 11.912-4.006 16.331c-2.6204 3.1248-6.3233 5.1035-9.9359 6.9955-1.5441 0.80869-3.3153 1.6367-4.963 1.0679-1.4325-0.49454-2.3258-1.9164-2.8969-3.3202-2.0001-4.9166-1.2831-10.843 1.8318-15.14-0.8916 4.084-2.9358 8.1517-6.5211 10.301-3.5852 2.1493-8.8794 1.6944-11.244-1.7531-0.91193-1.3298-1.3208-2.9527-1.4254-4.5617-0.33594-5.1693 2.2978-10.095 5.5491-14.128 3.2514-4.0328 7.1858-7.5004 10.196-11.716-8.579 8.1139-20.218 12.911-32.023 13.199-3.4083 0.08313-7.0209-0.26364-9.7878-2.2555-3.4623-2.4925-4.8385-7.5042-3.1346-11.415 1.704-3.9111 6.3113-6.316 10.494-5.4776-2.3884 0.080994-4.834 0.15439-7.1069-0.58374-2.2729-0.73813-4.3771-2.4634-4.8824-4.7991-0.9212-4.2579 3.7197-7.7712 8.0247-8.4388 6.3272-0.98111 12.635 1.4245 18.587 3.7856 5.9022 2.3414 11.824 4.5669 17.727 6.9083l1.5853 1.3036z"/> <path class="st4" d="m726.59 286.56c-0.40021-1.5284-1.9816-2.3026-3.4435-1.7264-2.0315 0.80063-1.9664 2.8873-0.97742 4.1939-0.40448 2.3719-0.70514 4.6891-1.4605 7.0088-0.77563 2.3819-1.9057 4.7459-1.9432 7.2929-0.0064087 0.43488 0.63214 0.54327 0.75873 0.12015 1.1185-3.7399 2.9361-7.1919 3.7126-11.041 0.1571-0.77856 0.28052-1.5618 0.38916-2.348 0.63623 0.17526 1.3557 0.080719 2.0751-0.44205 0.5838-0.42429 0.89294-1.1204 0.88849-1.8051 0.10114-0.40549 0.10919-0.83856 4.883e-4 -1.2537z"/> <path class="st4" d="m738.3 288.35c-1.2319-1.3213-3.5421-0.93176-4.4705 0.55936-0.49097 0.78851-0.49182 1.7784-0.11237 2.5823-3.4061 4.0679-6.3677 8.7734-8.5148 13.591-0.26337 0.59097 0.51343 1.1037 0.88263 0.53107 1.7068-2.6472 3.3873-5.3146 5.1666-7.9141 0.90668-1.3246 1.8467-2.6268 2.825-3.8995 0.27869-0.36261 0.5603-0.72406 0.84662-1.0815 0.12012 0.056793 0.24432 0.10776 0.37714 0.14502 1.2566 0.35284 2.576-0.51419 2.9172-1.7038 0.711-0.76016 0.93103-1.8997 0.08252-2.8098z"/> <path class="st4" d="m712.28 304.7c-2.183-3.3009-4.7862-6.3333-7.5013-9.2081-0.016357-0.017364-0.033081-0.034363-0.049438-0.051697 0.62885-0.56674 1.0029-1.4115 0.80438-2.4762-0.26447-1.418-1.6063-2.529-3.0741-2.0688-0.47748 0.14969-0.86633 0.41946-1.1496 0.75885-0.77258 0.46658-1.2878 1.3451-1.2012 2.3059 0.15424 1.7108 1.4688 2.3885 2.7714 2.2713 0.26019 0.24802 0.51758 0.49493 0.75732 0.74631 0.86194 0.90372 1.7112 1.8205 2.5502 2.7455 1.7189 1.8951 3.3511 3.8663 5.0412 5.7866 0.49841 0.56628 1.4711-0.1749 1.0512-0.80972z"/> <path class="st4" d="m715.44 301.32c-0.91803-1.0825-1.3272-2.7629-1.8575-4.0591-0.47021-1.1493-0.94189-2.2978-1.4204-3.4435 0.0092773-0.031738 0.018616-0.063385 0.024841-0.097229 1.0628-1.6107-0.98114-4.0185-2.7525-2.7484-0.47784 0.34262-0.7345 0.77057-0.82227 1.212-0.67242 1.0559 0.16125 1.9905 1.23 2.2848 0.2088 0.096191 0.43561 0.15823 0.67456 0.1774 0.54315 1.241 1.0927 2.4791 1.6431 3.7169 0.61896 1.3921 1.1137 2.9525 2.1782 4.0773 0.70514 0.74518 1.7461-0.36075 1.102-1.1202z"/> <path class="st4" d="m714.01 307.44c-3.6411 0.058197-6.752 2.0019-10.122 3.1259-1.1555 0.38544-2.3309 0.7182-3.5175 1.0009-0.094666-0.56479-0.40399-1.0568-0.9483-1.2897-0.11566-0.10541-0.24255-0.2001-0.38055-0.28012-1.7449-1.0121-3.1417 0.58438-3.1393 2.1151-0.071716 0.31744-0.044434 0.6532 0.12408 0.99176 0.17407 0.34961 0.42609 0.57816 0.72571 0.72037 0.23535 0.16785 0.52057 0.30313 0.86761 0.38843 0.90063 0.22144 1.601-0.03067 2.0745-0.4989 0.24066-0.060577 0.46497-0.11917 0.66235-0.164 2.2753-0.51718 4.4958-1.25 6.6391-2.172 2.2667-0.97507 4.5038-2.4114 7.0137-2.5894 0.85571-0.060669 0.87787-1.3624 5.494e-4 -1.3484z"/> <path class="st4" d="m710.7 310.02c-1.097 1.3709-2.6519 2.1819-4.1322 3.0709-0.65564 0.39371-1.3 0.80481-1.899 1.2819-0.037537 0.029907-0.078003 0.060944-0.12018 0.092926-0.49579-0.37912-1.1582-0.47849-1.8582-0.018036-0.13922 0.091553-0.2561 0.20584-0.35114 0.3342-2.0216 0.97012-0.22198 4.347 2.0455 3.1676 0.961-0.49982 1.1698-1.4849 0.92621-2.3283 2.0092-1.8042 4.6136-2.6732 6.2923-4.8929 0.39264-0.5191-0.49261-1.2214-0.90332-0.70825z"/> <path class="st4" d="m714.95 311.51c-1.3002 1.9076-2.5615 3.8406-3.7766 5.8038-0.51617 0.83401-1.0264 1.6718-1.5385 2.5083-0.059509-0.044281-0.11932-0.088287-0.18347-0.12799-1.1826-0.73181-2.8965-0.26428-3.3594 1.1052-0.090027 0.26608-0.10516 0.57141-0.065491 0.88782-0.037109 0.15054-0.048157 0.31104-0.031555 0.47595-0.2923 0.64636-0.21411 1.4193 0.46576 2.085 1.149 1.1251 3.0873 0.71494 3.8759-0.61069 0.38403-0.64563 0.49353-1.419 0.34631-2.1346 0.43787-0.73007 0.87567-1.4601 1.3135-2.1902 1.4107-2.3521 2.7753-4.7286 4.0704-7.1461 0.39691-0.74091-0.64948-1.3423-1.1169-0.65652z"/> <path class="st4" d="m723.97 324.96c-0.28668-0.93039-1.0267-1.6424-1.8746-2.1201-0.054626-1.3812-0.11127-2.7624-0.17157-4.1435-0.11041-2.5281-0.39941-5.0909-0.37927-7.6188 0.0056152-0.70569-1.1584-0.9151-1.2718-0.17532-0.38202 2.4933-0.1264 5.0815-0.047485 7.5922 0.039612 1.2612 0.08252 2.5222 0.12665 3.7833-1.012-0.018005-1.9312 0.57358-1.9871 1.7665-0.019592 0.418 0.062927 0.81622 0.21631 1.1881-0.51483 1.8935 2.1046 3.7493 4.088 2.8575 1.2073-0.54285 1.682-1.893 1.3008-3.1299z"/> <path class="st4" d="m734.32 317.84c-1.1766-1.3548-2.3725-2.6932-3.6102-3.9919-1.3613-1.4285-2.765-3.2117-4.6397-3.9584-0.38251-0.15234-0.75299 0.43542-0.42706 0.7016 1.5887 1.2976 2.8741 3.1795 4.2237 4.7229 0.96472 1.1033 1.9301 2.2052 2.8857 3.3158-0.097717 0.18964-0.13538 0.40768-0.056213 0.61182 0.030212 0.077972 0.064087 0.15274 0.099609 0.22598-0.54321 0.58972-0.89624 1.361-0.82355 2.1408 0.23669 2.5399 3.8105 2.7739 4.822 0.63828 0.82892-1.7501-0.62354-4.4101-2.4743-4.4069z"/> <path class="st4" d="m740.08 307.6c-0.22919-0.092224-0.51227-0.16119-0.82306-0.20361-0.2594-0.064392-0.52997-0.081696-0.79871-0.04541-1.0214 0.014465-2.1164 0.30731-2.6284 1.007-1.3257-0.14563-2.6938-0.087036-4.0012-0.42737-0.95258-0.24796-1.8659-0.41147-2.8533-0.41528-1.1802-0.0045776-2.4295 0.16144-3.475-0.49585-0.50391-0.31683-1.1289 0.43146-0.659 0.8349 1.6789 1.4413 3.7192 0.81625 5.702 1.3008 1.0409 0.25442 2.0173 0.58942 3.0925 0.68744 0.71826 0.065491 1.4435 0.064148 2.1474 0.16354 0.21692 0.23904 0.54187 0.40274 0.90088 0.49838 0.058716 0.11487 0.13007 0.22321 0.21008 0.32605 0.043091 0.079132 0.090332 0.15628 0.14215 0.23114 0.074158 0.15048 0.1817 0.28064 0.31921 0.37665 0.0072632 0.0069885 0.013306 0.014862 0.02063 0.02179 1.0977 1.0364 3.0066 0.95105 3.8864-0.32162 0.91571-1.3246 0.24316-2.9651-1.1825-3.5385z"/> <path class="st5" d="m718.49 298.92c-3.0685 0.28659-6.1674 1.6025-7.9786 4.096s-1.9847 6.261 0.088318 8.5415c1.357 1.4927 3.3856 2.1535 5.3396 2.6549 2.8691 0.73624 6.1662 1.1874 8.5807-0.52835 1.1655-0.82822 1.9687-2.0692 2.6296-3.3371 0.82019-1.5732 1.4778-3.3838 1.0151-5.0965-0.26422-0.97775-0.87347-1.8279-1.5577-2.5746-1.9664-2.1458-4.6505-3.9327-7.561-3.9327l-0.55597 0.17682z"/> <path class="st6" d="m616.23 807.71c0.34314-1.8445 0.67206-3.6942 0.97845-5.5501 1.7417-10.554 2.8794-21.161 3.5855-31.802-87.804-1.3229-175.65-0.08844-263.38 3.6993 0.33423 10.51 1.7712 22.512 4.5269 34.332 84.681 4.6723 169.63 4.4419 254.29-0.67853z"/> <path class="st6" d="m621.73 729.25c-0.10834-9.8029-0.38739-19.612-0.71649-29.412-85.129-0.10706-178.81-0.5896-263.94-0.5896-1.0304 11.133-1.2578 21.571-1.1263 31.871 88.597 0.98419 177.21 0.3703 265.79-1.8696z"/> <path class="st7" d="m620.79 770.36c0.90662-13.663 1.0958-27.382 0.94397-41.113-88.574 2.2399-177.19 2.8538-265.79 1.8696 0.17819 13.952 1.0183 27.65 1.4448 42.466 0.0045166 0.15692 0.01236 0.31848 0.017395 0.47626 87.732-3.7878 175.57-5.0222 263.38-3.6993z"/> <path class="st6" d="m378.03 847.36c1.5063 2.1505 3.1012 4.1768 4.7942 6.0465 16.049 17.725 39.269 19.122 62.798 23.376 23.529 4.2543 47.649 3.3167 71.541 2.3645 26.553-1.0582 58.636-4.6564 77.444-23.431 4.2772-4.2697 7.7127-9.0142 10.534-14.091-75.443 7.2712-151.4 9.2007-227.11 5.7349z"/> <path class="st7" d="m361.94 808.39c3.3212 14.245 8.5585 28.216 16.094 38.973 75.713 3.4658 151.67 1.5364 227.11-5.7349 5.7077-10.271 8.8518-21.928 11.083-33.916-84.656 5.1204-169.61 5.3508-254.29 0.67853z"/> <path class="st7" d="m355.47 700.88c6.3209 3.9793 14.23 4.1507 21.699 4.1998 72.806 0.4787 145.61 0.9574 218.42 1.4361 10.086 0.066345 21.412-0.36859 28.333-7.7054 6.6249-7.0223 6.5936-18.676 1.5184-26.888-5.0753-8.2125-14.203-13.255-23.6-15.469-9.397-2.2137-19.178-1.9308-28.828-1.6354-62.994 1.9283-125.99 2.4333-188.98 4.3616-7.3784 0.22589-14.974-0.92419-21.716 2.0811-6.7424 3.0053-12.717 12.355-12.609 19.736-1e-7 1e-7 -0.55396 15.904 5.7669 19.883z"/> </svg>